G04 DesignSpark PCB Gerber Version 11.0 Build 5877*
%FSLAX35Y35*%
%MOIN*%
%ADD106R,0.04563X0.04563*%
%ADD103R,0.07087X0.07087*%
%ADD11C,0.01000*%
%ADD10C,0.01200*%
%ADD13C,0.04000*%
%ADD107C,0.04563*%
%ADD105C,0.05118*%
%ADD102C,0.05500*%
%ADD108C,0.05916*%
%ADD104C,0.07087*%
X0Y0D02*
D02*
D10*
X1083Y600D02*
X269075D01*
Y85314D01*
X1083D01*
Y600D01*
X3484Y82913D02*
Y3000D01*
X266676D01*
Y44368D01*
G75*
G02*
X260969Y45245I-2360J3654D01*
G01*
Y29709D01*
X263599Y27079D01*
G75*
G02*
X264569Y25608I-630J-1471D01*
G01*
Y17793D01*
G75*
G02*
X264099Y16660I-1600J0D01*
G01*
X259726Y12287D01*
G75*
G02*
X258909Y11848I-1133J1130D01*
G01*
G75*
G02*
X255079Y3272I-3830J-3433D01*
G01*
G75*
G02*
X250079Y7209I0J5143D01*
G01*
G75*
G02*
X240079I-5000J1206D01*
G01*
G75*
G02*
X230079I-5000J1206D01*
G01*
G75*
G02*
X220079I-5000J1206D01*
G01*
G75*
G02*
X210079I-5000J1206D01*
G01*
G75*
G02*
X200079I-5000J1206D01*
G01*
G75*
G02*
X190079I-5000J1206D01*
G01*
G75*
G02*
X180079I-5000J1206D01*
G01*
G75*
G02*
X170079I-5000J1206D01*
G01*
G75*
G02*
X160079I-5000J1206D01*
G01*
G75*
G02*
X150079I-5000J1206D01*
G01*
G75*
G02*
X140079I-5000J1206D01*
G01*
G75*
G02*
X130079I-5000J1206D01*
G01*
G75*
G02*
X120079I-5000J1206D01*
G01*
G75*
G02*
X110079I-5000J1206D01*
G01*
G75*
G02*
X100079I-5000J1206D01*
G01*
G75*
G02*
X90079I-5000J1206D01*
G01*
G75*
G02*
X80079I-5000J1206D01*
G01*
G75*
G02*
X70079I-5000J1206D01*
G01*
G75*
G02*
X60079I-5000J1206D01*
G01*
G75*
G02*
X50079I-5000J1206D01*
G01*
G75*
G02*
X40079I-5000J1206D01*
G01*
G75*
G02*
X30079I-5000J1206D01*
G01*
G75*
G02*
X20222Y6722I-5000J1206D01*
G01*
Y3273D01*
X9935D01*
Y13557D01*
X20222D01*
Y10108D01*
G75*
G02*
X30079Y9620I4857J-1693D01*
G01*
G75*
G02*
X40079I5000J-1206D01*
G01*
G75*
G02*
X50079I5000J-1206D01*
G01*
G75*
G02*
X60079I5000J-1206D01*
G01*
G75*
G02*
X70079I5000J-1206D01*
G01*
G75*
G02*
X80079I5000J-1206D01*
G01*
G75*
G02*
X90079I5000J-1206D01*
G01*
G75*
G02*
X100079I5000J-1206D01*
G01*
G75*
G02*
X110079I5000J-1206D01*
G01*
G75*
G02*
X120079I5000J-1206D01*
G01*
G75*
G02*
X121221Y11817I5000J-1206D01*
G01*
X119799D01*
G75*
G02*
X118667Y12287I0J1600D01*
G01*
X116836Y14117D01*
G75*
G02*
X110435Y18415I-1757J4298D01*
G01*
G75*
G02*
X115079Y23058I4643J0D01*
G01*
G75*
G02*
X119201Y16278I0J-4643D01*
G01*
X120462Y15017D01*
X121915D01*
G75*
G02*
X125079Y23058I3164J3398D01*
G01*
G75*
G02*
X128243Y15017I0J-4643D01*
G01*
X131915D01*
G75*
G02*
X136836Y22713I3164J3398D01*
G01*
X137415Y23292D01*
Y44969D01*
G75*
G02*
X130612Y45742I-3098J3053D01*
G01*
Y43107D01*
G75*
G02*
X130142Y41974I-1600J0D01*
G01*
X109027Y20859D01*
G75*
G02*
X105079Y13772I-3948J-2444D01*
G01*
G75*
G02*
X100435Y18415I0J4643D01*
G01*
G75*
G02*
X106483Y22841I4643J0D01*
G01*
X127412Y43770D01*
Y44966D01*
G75*
G02*
X119967Y48022I-3095J3056D01*
G01*
G75*
G02*
X127412Y51078I4350J0D01*
G01*
Y54680D01*
G75*
G02*
X127882Y55812I1600J0D01*
G01*
X130487Y58417D01*
G75*
G02*
X138167Y58022I3830J-395D01*
G01*
G75*
G02*
X131748Y55154I-3850J0D01*
G01*
X130612Y54017D01*
Y50302D01*
G75*
G02*
X137415Y51075I3705J-2280D01*
G01*
Y54989D01*
G75*
G02*
X137885Y56122I1600J0D01*
G01*
X140542Y58778D01*
G75*
G02*
X148167Y58022I3775J-756D01*
G01*
G75*
G02*
X141591Y55303I-3850J0D01*
G01*
X140615Y54326D01*
Y50307D01*
G75*
G02*
X147418Y51072I3702J-2285D01*
G01*
Y54989D01*
G75*
G02*
X147888Y56122I1600J0D01*
G01*
X150541Y58774D01*
G75*
G02*
X158167Y58022I3776J-752D01*
G01*
G75*
G02*
X151593Y55301I-3850J0D01*
G01*
X150618Y54326D01*
Y50312D01*
G75*
G02*
X158667Y48022I3698J-2290D01*
G01*
G75*
G02*
X150618Y45732I-4350J0D01*
G01*
Y22629D01*
G75*
G02*
X150148Y21496I-1600J0D01*
G01*
X149202Y20550D01*
G75*
G02*
X148243Y15017I-4123J-2135D01*
G01*
X151915D01*
G75*
G02*
X155079Y23058I3164J3398D01*
G01*
G75*
G02*
X158243Y15017I0J-4643D01*
G01*
X161915D01*
G75*
G02*
X165079Y23058I3164J3398D01*
G01*
G75*
G02*
X168243Y15017I0J-4643D01*
G01*
X171915D01*
G75*
G02*
X177062Y22613I3164J3398D01*
G01*
X177743Y23295D01*
Y45343D01*
G75*
G02*
X169967Y48022I-3427J2680D01*
G01*
G75*
G02*
X177743Y50702I4350J0D01*
G01*
Y54676D01*
G75*
G02*
X178213Y55809I1600J0D01*
G01*
X180467Y58063D01*
G75*
G02*
X181466Y60610I3850J-41D01*
G01*
X179306Y62770D01*
X74822D01*
X73631Y61579D01*
G75*
G02*
X73847Y61594I215J-1586D01*
G01*
X102879D01*
G75*
G02*
X108167Y58022I1437J-3572D01*
G01*
G75*
G02*
X100467I-3850J0D01*
G01*
G75*
G02*
X100485Y58394I3850J-1D01*
G01*
X74510D01*
X66694Y50578D01*
Y47386D01*
G75*
G02*
X74285Y46243I3709J-1143D01*
G01*
G75*
G02*
X66694Y45100I-3881J0D01*
G01*
Y22768D01*
G75*
G02*
X65079Y13772I-1616J-4353D01*
G01*
G75*
G02*
X63494Y22780I0J4643D01*
G01*
Y44871D01*
G75*
G02*
X57022Y46243I-3091J1372D01*
G01*
G75*
G02*
X58806Y49223I3381J0D01*
G01*
Y50616D01*
G75*
G02*
X59276Y51748I1600J0D01*
G01*
X73027Y65500D01*
G75*
G02*
X74160Y65970I1133J-1130D01*
G01*
X179969D01*
G75*
G02*
X181101Y65500I0J-1600D01*
G01*
X184754Y61847D01*
G75*
G02*
X188167Y58022I-438J-3825D01*
G01*
G75*
G02*
X181930Y55001I-3850J0D01*
G01*
X180943Y54014D01*
Y50769D01*
G75*
G02*
X187746Y50698I3373J-2746D01*
G01*
Y54367D01*
G75*
G02*
X188217Y55500I1600J0D01*
G01*
X190476Y57759D01*
G75*
G02*
X190467Y58022I3843J264D01*
G01*
G75*
G02*
X191322Y60441I3850J0D01*
G01*
X185555Y66209D01*
X70411D01*
G75*
G02*
X69278Y66677I-2J1600D01*
G01*
X61615Y74338D01*
G75*
G02*
X57022Y77495I-1211J3157D01*
G01*
G75*
G02*
X63785I3381J0D01*
G01*
G75*
G02*
X63707Y76772I-3382J0D01*
G01*
X71071Y69409D01*
X186217D01*
G75*
G02*
X187350Y68939I0J-1600D01*
G01*
X194418Y61871D01*
G75*
G02*
X198167Y58022I-102J-3849D01*
G01*
G75*
G02*
X192109Y54867I-3850J0D01*
G01*
X190946Y53704D01*
Y50772D01*
G75*
G02*
X197750Y50693I3370J-2750D01*
G01*
Y54676D01*
G75*
G02*
X198220Y55809I1600J0D01*
G01*
X200467Y58056D01*
G75*
G02*
X207753Y59758I3850J-34D01*
G01*
Y77032D01*
G75*
G02*
X206253Y79687I1600J2655D01*
G01*
G75*
G02*
X212453I3100J0D01*
G01*
G75*
G02*
X210953Y77032I-3100J0D01*
G01*
Y59895D01*
G75*
G02*
X217443Y60269I3364J-1873D01*
G01*
Y68280D01*
G75*
G02*
X215943Y70935I1600J2655D01*
G01*
G75*
G02*
X222143I3100J0D01*
G01*
G75*
G02*
X220643Y68280I-3100J0D01*
G01*
Y59622D01*
X220815D01*
G75*
G02*
X228167Y58022I3502J-1600D01*
G01*
G75*
G02*
X220815Y56422I-3850J0D01*
G01*
X220643D01*
Y50352D01*
G75*
G02*
X227759Y50681I3673J-2330D01*
G01*
Y54676D01*
G75*
G02*
X228229Y55809I1600J0D01*
G01*
X230467Y58047D01*
G75*
G02*
X238167Y58022I3850J-25D01*
G01*
G75*
G02*
X231939Y54994I-3850J0D01*
G01*
X230959Y54014D01*
Y50788D01*
G75*
G02*
X237762Y50677I3357J-2766D01*
G01*
Y54676D01*
G75*
G02*
X238232Y55809I1600J0D01*
G01*
X240467Y58044D01*
G75*
G02*
X248167Y58022I3850J-22D01*
G01*
G75*
G02*
X241941Y54993I-3850J0D01*
G01*
X240962Y54014D01*
Y50792D01*
G75*
G02*
X247765Y50673I3354J-2770D01*
G01*
Y54989D01*
G75*
G02*
X248536Y56357I1600J0D01*
G01*
X250496Y57546D01*
G75*
G02*
X250467Y58022I3819J476D01*
G01*
G75*
G02*
X257769Y59727I3850J0D01*
G01*
Y73532D01*
G75*
G02*
X256411Y76561I2700J3029D01*
G01*
G75*
G02*
X264526I4058J0D01*
G01*
G75*
G02*
X260969Y72535I-4058J0D01*
G01*
Y59923D01*
G75*
G02*
X266676Y61064I3348J-1901D01*
G01*
Y82913D01*
X3484D01*
X9583Y47490D02*
G75*
G02*
X18699I4558J0D01*
G01*
G75*
G02*
X9583I-4558J0D01*
G01*
X15079Y23058D02*
G75*
G02*
X19722Y18415I0J-4643D01*
G01*
G75*
G02*
X15079Y13772I-4643J0D01*
G01*
G75*
G02*
X10435Y18415I0J4643D01*
G01*
G75*
G02*
X15079Y23058I4643J0D01*
G01*
X14141Y69594D02*
G75*
G02*
X18300Y65435I0J-4159D01*
G01*
G75*
G02*
X14141Y61276I-4159J0D01*
G01*
G75*
G02*
X9982Y65435I0J4159D01*
G01*
G75*
G02*
X14141Y69594I4159J0D01*
G01*
X10482Y73309D02*
G75*
G02*
X17800I3659J0D01*
G01*
G75*
G02*
X10482I-3659J0D01*
G01*
X20083Y47490D02*
G75*
G02*
X28199I4058J0D01*
G01*
G75*
G02*
X20083I-4058J0D01*
G01*
X25079Y23058D02*
G75*
G02*
X29722Y18415I0J-4643D01*
G01*
G75*
G02*
X25079Y13772I-4643J0D01*
G01*
G75*
G02*
X20435Y18415I0J4643D01*
G01*
G75*
G02*
X25079Y23058I4643J0D01*
G01*
X35079D02*
G75*
G02*
X39722Y18415I0J-4643D01*
G01*
G75*
G02*
X35079Y13772I-4643J0D01*
G01*
G75*
G02*
X30435Y18415I0J4643D01*
G01*
G75*
G02*
X35079Y23058I4643J0D01*
G01*
X37021Y49624D02*
X43785D01*
Y42862D01*
X37021D01*
Y49624D01*
X45079Y23058D02*
G75*
G02*
Y13772I0J-4643D01*
G01*
G75*
G02*
X40435Y18415I0J4643D01*
G01*
G75*
G02*
X45079Y23058I4643J0D01*
G01*
X37022Y77495D02*
G75*
G02*
X43785I3381J0D01*
G01*
G75*
G02*
X37022I-3381J0D01*
G01*
X47022Y46243D02*
G75*
G02*
X53785I3381J0D01*
G01*
G75*
G02*
X47022I-3381J0D01*
G01*
X55079Y23058D02*
G75*
G02*
X59722Y18415I0J-4643D01*
G01*
G75*
G02*
X55079Y13772I-4643J0D01*
G01*
G75*
G02*
X50435Y18415I0J4643D01*
G01*
G75*
G02*
X55079Y23058I4643J0D01*
G01*
X47022Y77495D02*
G75*
G02*
X53785I3381J0D01*
G01*
G75*
G02*
X47022I-3381J0D01*
G01*
X67022D02*
G75*
G02*
X73785I3381J0D01*
G01*
G75*
G02*
X67022I-3381J0D01*
G01*
X236411Y76561D02*
G75*
G02*
X244526I4058J0D01*
G01*
G75*
G02*
X236411I-4058J0D01*
G01*
X246411D02*
G75*
G02*
X254526I4058J0D01*
G01*
G75*
G02*
X246411I-4058J0D01*
G01*
X110467Y58022D02*
G75*
G02*
X118167I3850J0D01*
G01*
G75*
G02*
X110467I-3850J0D01*
G01*
X120467D02*
G75*
G02*
X128167I3850J0D01*
G01*
G75*
G02*
X120467I-3850J0D01*
G01*
X159967Y48022D02*
G75*
G02*
X168667I4350J0D01*
G01*
G75*
G02*
X159967I-4350J0D01*
G01*
X160467Y58022D02*
G75*
G02*
X168167I3850J0D01*
G01*
G75*
G02*
X160467I-3850J0D01*
G01*
X170467D02*
G75*
G02*
X178167I3850J0D01*
G01*
G75*
G02*
X170467I-3850J0D01*
G01*
X112111Y51772D02*
G75*
G02*
X118667Y48022I2206J-3750D01*
G01*
G75*
G02*
X110606Y45752I-4350J0D01*
G01*
Y41547D01*
G75*
G02*
X110135Y40415I-1600J0D01*
G01*
X96680Y26958D01*
Y22773D01*
G75*
G02*
X95079Y13772I-1602J-4358D01*
G01*
G75*
G02*
X93480Y22774I0J4643D01*
G01*
Y27620D01*
G75*
G02*
X93950Y28753I1600J0D01*
G01*
X107406Y42210D01*
Y44959D01*
G75*
G02*
X99967Y48022I-3089J3063D01*
G01*
G75*
G02*
X106526Y51769I4350J0D01*
G01*
G75*
G02*
X106218Y53117I2792J1348D01*
G01*
G75*
G02*
X112418I3100J0D01*
G01*
G75*
G02*
X112111Y51772I-3100J0D01*
G01*
X85079Y23058D02*
G75*
G02*
X89722Y18415I0J-4643D01*
G01*
G75*
G02*
X85079Y13772I-4643J0D01*
G01*
G75*
G02*
X80435Y18415I0J4643D01*
G01*
G75*
G02*
X85079Y23058I4643J0D01*
G01*
X75079D02*
G75*
G02*
Y13772I0J-4643D01*
G01*
G75*
G02*
X70435Y18415I0J4643D01*
G01*
G75*
G02*
X75079Y23058I4643J0D01*
G01*
X4084Y18415D02*
G36*
X4084Y18415D02*
Y3600D01*
X9935D01*
Y13557D01*
X20222D01*
Y10108D01*
G75*
G02*
X30079Y9620I4857J-1693D01*
G01*
G75*
G02*
X40079I5000J-1206D01*
G01*
G75*
G02*
X50079I5000J-1206D01*
G01*
G75*
G02*
X60079I5000J-1206D01*
G01*
G75*
G02*
X70079I5000J-1206D01*
G01*
G75*
G02*
X80079I5000J-1206D01*
G01*
G75*
G02*
X90079I5000J-1206D01*
G01*
G75*
G02*
X100079I5000J-1206D01*
G01*
G75*
G02*
X110079I5000J-1206D01*
G01*
G75*
G02*
X120079I5000J-1206D01*
G01*
G75*
G02*
X121221Y11817I5002J-1206D01*
G01*
X119799D01*
G75*
G02*
X118667Y12287I0J1599D01*
G01*
X116836Y14117D01*
G75*
G02*
X110435Y18415I-1757J4298D01*
G01*
X109722D01*
G75*
G02*
X105079Y13772I-4643J0D01*
G01*
G75*
G02*
X100435Y18415I0J4643D01*
G01*
Y18415D01*
X99722D01*
G75*
G02*
X95079Y13772I-4643J0D01*
G01*
G75*
G02*
X90435Y18415I0J4643D01*
G01*
X89722D01*
Y18415D01*
G75*
G02*
X85079Y13772I-4643J0D01*
G01*
G75*
G02*
X80435Y18415I0J4643D01*
G01*
Y18415D01*
X79722D01*
G75*
G02*
X75079Y13772I-4643J0D01*
G01*
G75*
G02*
X70435Y18415I0J4643D01*
G01*
Y18415D01*
X69722D01*
G75*
G02*
X65079Y13772I-4643J0D01*
G01*
G75*
G02*
X60435Y18415I0J4643D01*
G01*
X59722D01*
Y18415D01*
G75*
G02*
X55079Y13772I-4643J0D01*
G01*
G75*
G02*
X50435Y18415I0J4643D01*
G01*
Y18415D01*
X49722D01*
G75*
G02*
X45079Y13772I-4643J0D01*
G01*
G75*
G02*
X40435Y18415I0J4643D01*
G01*
Y18415D01*
X39722D01*
Y18415D01*
G75*
G02*
X35079Y13772I-4643J0D01*
G01*
G75*
G02*
X30435Y18415I0J4643D01*
G01*
Y18415D01*
X29722D01*
Y18415D01*
G75*
G02*
X25079Y13772I-4643J0D01*
G01*
G75*
G02*
X20435Y18415I0J4643D01*
G01*
Y18415D01*
X19722D01*
Y18415D01*
G75*
G02*
X15079Y13772I-4643J0D01*
G01*
G75*
G02*
X10435Y18415I0J4643D01*
G01*
Y18415D01*
X4084D01*
G37*
X20222Y6722D02*
G36*
X20222Y6722D02*
Y3600D01*
X23270D01*
G75*
G02*
X20222Y6722I1808J4815D01*
G01*
G37*
X30079Y7209D02*
G36*
X30079Y7209D02*
G75*
G02*
X26887Y3600I-5000J1206D01*
G01*
X33270D01*
G75*
G02*
X30079Y7209I1808J4815D01*
G01*
G37*
X40079D02*
G36*
X40079Y7209D02*
G75*
G02*
X36887Y3600I-5000J1206D01*
G01*
X43270D01*
G75*
G02*
X40079Y7209I1808J4815D01*
G01*
G37*
X50079D02*
G36*
X50079Y7209D02*
G75*
G02*
X46887Y3600I-5000J1206D01*
G01*
X53270D01*
G75*
G02*
X50079Y7209I1808J4815D01*
G01*
G37*
X60079D02*
G36*
X60079Y7209D02*
G75*
G02*
X56887Y3600I-5000J1206D01*
G01*
X63270D01*
G75*
G02*
X60079Y7209I1808J4815D01*
G01*
G37*
X70079D02*
G36*
X70079Y7209D02*
G75*
G02*
X66887Y3600I-5000J1206D01*
G01*
X73270D01*
G75*
G02*
X70079Y7209I1808J4815D01*
G01*
G37*
X80079D02*
G36*
X80079Y7209D02*
G75*
G02*
X76887Y3600I-5000J1206D01*
G01*
X83270D01*
G75*
G02*
X80079Y7209I1808J4815D01*
G01*
G37*
X90079D02*
G36*
X90079Y7209D02*
G75*
G02*
X86887Y3600I-5000J1206D01*
G01*
X93270D01*
G75*
G02*
X90079Y7209I1808J4815D01*
G01*
G37*
X100079D02*
G36*
X100079Y7209D02*
G75*
G02*
X96887Y3600I-5000J1206D01*
G01*
X103270D01*
G75*
G02*
X100079Y7209I1808J4815D01*
G01*
G37*
X110079D02*
G36*
X110079Y7209D02*
G75*
G02*
X106887Y3600I-5000J1206D01*
G01*
X113270D01*
G75*
G02*
X110079Y7209I1808J4815D01*
G01*
G37*
X119722Y18415D02*
G36*
X119722Y18415D02*
G75*
G02*
X119201Y16278I-4643J0D01*
G01*
X120462Y15017D01*
X121915D01*
G75*
G02*
X120435Y18415I3165J3398D01*
G01*
X119722D01*
G37*
X120079Y7209D02*
G36*
X120079Y7209D02*
G75*
G02*
X116887Y3600I-5000J1206D01*
G01*
X123270D01*
G75*
G02*
X120079Y7209I1808J4815D01*
G01*
G37*
X129722Y18415D02*
G36*
X129722Y18415D02*
G75*
G02*
X128243Y15017I-4644J0D01*
G01*
X131915D01*
G75*
G02*
X130435Y18415I3164J3399D01*
G01*
X129722D01*
G37*
X130079Y7209D02*
G36*
X130079Y7209D02*
G75*
G02*
X126887Y3600I-5000J1206D01*
G01*
X133270D01*
G75*
G02*
X130079Y7209I1808J4815D01*
G01*
G37*
X140079D02*
G36*
X140079Y7209D02*
G75*
G02*
X136887Y3600I-5000J1206D01*
G01*
X143270D01*
G75*
G02*
X140079Y7209I1808J4815D01*
G01*
G37*
X149722Y18415D02*
G36*
X149722Y18415D02*
G75*
G02*
X148243Y15017I-4643J0D01*
G01*
X151915D01*
G75*
G02*
X150435Y18415I3165J3398D01*
G01*
X149722D01*
G37*
X150079Y7209D02*
G36*
X150079Y7209D02*
G75*
G02*
X146887Y3600I-5000J1206D01*
G01*
X153270D01*
G75*
G02*
X150079Y7209I1808J4815D01*
G01*
G37*
X159722Y18415D02*
G36*
X159722Y18415D02*
G75*
G02*
X158243Y15017I-4644J0D01*
G01*
X161915D01*
G75*
G02*
X160435Y18415I3165J3398D01*
G01*
X159722D01*
G37*
X160079Y7209D02*
G36*
X160079Y7209D02*
G75*
G02*
X156887Y3600I-5000J1206D01*
G01*
X163270D01*
G75*
G02*
X160079Y7209I1808J4815D01*
G01*
G37*
X169722Y18415D02*
G36*
X169722Y18415D02*
G75*
G02*
X168243Y15017I-4644J0D01*
G01*
X171915D01*
G75*
G02*
X170435Y18415I3165J3398D01*
G01*
X169722D01*
G37*
X170079Y7209D02*
G36*
X170079Y7209D02*
G75*
G02*
X166887Y3600I-5000J1206D01*
G01*
X173270D01*
G75*
G02*
X170079Y7209I1808J4815D01*
G01*
G37*
X180079D02*
G36*
X180079Y7209D02*
G75*
G02*
X176887Y3600I-5000J1206D01*
G01*
X183270D01*
G75*
G02*
X180079Y7209I1808J4815D01*
G01*
G37*
X190079D02*
G36*
X190079Y7209D02*
G75*
G02*
X186887Y3600I-5000J1206D01*
G01*
X193270D01*
G75*
G02*
X190079Y7209I1808J4815D01*
G01*
G37*
X200079D02*
G36*
X200079Y7209D02*
G75*
G02*
X196887Y3600I-5000J1206D01*
G01*
X203270D01*
G75*
G02*
X200079Y7209I1808J4815D01*
G01*
G37*
X210079D02*
G36*
X210079Y7209D02*
G75*
G02*
X206887Y3600I-5000J1206D01*
G01*
X213270D01*
G75*
G02*
X210079Y7209I1808J4815D01*
G01*
G37*
X220079D02*
G36*
X220079Y7209D02*
G75*
G02*
X216887Y3600I-5000J1206D01*
G01*
X223270D01*
G75*
G02*
X220079Y7209I1808J4815D01*
G01*
G37*
X230079D02*
G36*
X230079Y7209D02*
G75*
G02*
X226887Y3600I-5000J1206D01*
G01*
X233270D01*
G75*
G02*
X230079Y7209I1808J4815D01*
G01*
G37*
X240079D02*
G36*
X240079Y7209D02*
G75*
G02*
X236887Y3600I-5000J1206D01*
G01*
X243270D01*
G75*
G02*
X240079Y7209I1808J4815D01*
G01*
G37*
X250079D02*
G36*
X250079Y7209D02*
G75*
G02*
X246887Y3600I-5000J1206D01*
G01*
X253270D01*
G75*
G02*
X250079Y7209I1808J4815D01*
G01*
G37*
X259726Y12287D02*
G36*
X259726Y12287D02*
G75*
G02*
X258909Y11848I-1131J1127D01*
G01*
G75*
G02*
X260222Y8415I-3830J-3433D01*
G01*
G75*
G02*
X256887Y3600I-5143J0D01*
G01*
X266076D01*
Y18415D01*
X264569D01*
Y17793D01*
Y17793D01*
G75*
G02*
X264099Y16660I-1599J0D01*
G01*
X259726Y12287D01*
G37*
X4084Y47490D02*
G36*
X4084Y47490D02*
Y18415D01*
X10435D01*
Y18415D01*
G75*
G02*
X15079Y23058I4643J0D01*
G01*
G75*
G02*
X19722Y18415I0J-4643D01*
G01*
Y18415D01*
X20435D01*
Y18415D01*
G75*
G02*
X25079Y23058I4643J0D01*
G01*
G75*
G02*
X29722Y18415I0J-4643D01*
G01*
Y18415D01*
X30435D01*
Y18415D01*
G75*
G02*
X35079Y23058I4643J0D01*
G01*
G75*
G02*
X39722Y18415I0J-4643D01*
G01*
Y18415D01*
X40435D01*
Y18415D01*
G75*
G02*
X45079Y23058I4643J0D01*
G01*
G75*
G02*
X49722Y18415I0J-4643D01*
G01*
X50435D01*
Y18415D01*
G75*
G02*
X55079Y23058I4643J0D01*
G01*
G75*
G02*
X59722Y18415I0J-4643D01*
G01*
Y18415D01*
X60435D01*
G75*
G02*
X63494Y22780I4643J0D01*
G01*
Y44871D01*
G75*
G02*
X57022Y46243I-3091J1372D01*
G01*
G75*
G02*
X57261Y47490I3383J0D01*
G01*
X53547D01*
G75*
G02*
X53785Y46243I-3143J-1247D01*
G01*
G75*
G02*
X47022I-3381J0D01*
G01*
G75*
G02*
X47261Y47490I3381J0D01*
G01*
X43785D01*
Y42862D01*
X37021D01*
Y47490D01*
X28199D01*
G75*
G02*
X20083I-4058J0D01*
G01*
X18699D01*
G75*
G02*
X9583I-4558J0D01*
G01*
X4084D01*
G37*
X66694Y45100D02*
G36*
X66694Y45100D02*
Y22768D01*
G75*
G02*
X69722Y18415I-1616J-4353D01*
G01*
X70435D01*
Y18415D01*
G75*
G02*
X75079Y23058I4643J0D01*
G01*
G75*
G02*
X79722Y18415I0J-4643D01*
G01*
X80435D01*
Y18415D01*
G75*
G02*
X85079Y23058I4643J0D01*
G01*
G75*
G02*
X89722Y18415I0J-4643D01*
G01*
Y18415D01*
X90435D01*
G75*
G02*
X93480Y22774I4643J0D01*
G01*
Y27620D01*
Y27621D01*
G75*
G02*
X93950Y28753I1599J0D01*
G01*
X107406Y42210D01*
Y44959D01*
G75*
G02*
X99999Y47490I-3089J3063D01*
G01*
X74080D01*
G75*
G02*
X74285Y46243I-3676J-1246D01*
G01*
G75*
G02*
X66694Y45100I-3881J0D01*
G01*
G37*
Y47490D02*
G36*
X66694Y47490D02*
Y47386D01*
G75*
G02*
X66728Y47490I3711J-1142D01*
G01*
X66694D01*
G37*
X96680Y26958D02*
G36*
X96680Y26958D02*
Y22773D01*
G75*
G02*
X99722Y18415I-1602J-4358D01*
G01*
X100435D01*
G75*
G02*
Y18416I6445J0D01*
G01*
G75*
G02*
X106483Y22841I4643J0D01*
G01*
X127412Y43770D01*
Y44966D01*
G75*
G02*
X119999Y47490I-3095J3056D01*
G01*
X118634D01*
G75*
G02*
X110606Y45752I-4317J532D01*
G01*
Y41547D01*
Y41547D01*
G75*
G02*
X110135Y40415I-1599J0D01*
G01*
X96680Y26958D01*
G37*
X109722Y18415D02*
G36*
X109722Y18415D02*
X110435D01*
Y18415D01*
G75*
G02*
X115079Y23058I4643J0D01*
G01*
G75*
G02*
X119722Y18415I0J-4643D01*
G01*
X120435D01*
G75*
G02*
X125079Y23058I4643J0D01*
G01*
G75*
G02*
X129722Y18415I0J-4643D01*
G01*
X130435D01*
G75*
G02*
X136836Y22713I4643J0D01*
G01*
X137415Y23292D01*
Y44969D01*
G75*
G02*
X130612Y45742I-3098J3054D01*
G01*
Y43107D01*
Y43107D01*
G75*
G02*
X130142Y41974I-1599J0D01*
G01*
X109027Y20859D01*
G75*
G02*
X109722Y18415I-3949J-2444D01*
G01*
G37*
X149202Y20550D02*
G36*
X149202Y20550D02*
G75*
G02*
X149722Y18415I-4123J-2135D01*
G01*
X150435D01*
G75*
G02*
X155079Y23058I4643J0D01*
G01*
G75*
G02*
X159722Y18415I0J-4643D01*
G01*
X160435D01*
G75*
G02*
X165079Y23058I4643J0D01*
G01*
G75*
G02*
X169722Y18415I0J-4643D01*
G01*
X170435D01*
G75*
G02*
X177062Y22613I4643J0D01*
G01*
X177743Y23295D01*
Y45343D01*
G75*
G02*
X169999Y47490I-3427J2680D01*
G01*
X168634D01*
G75*
G02*
X159999I-4317J532D01*
G01*
X158634D01*
G75*
G02*
X150618Y45732I-4317J532D01*
G01*
Y22629D01*
Y22629D01*
G75*
G02*
X150148Y21496I-1599J0D01*
G01*
X149202Y20550D01*
G37*
X260969Y45245D02*
G36*
X260969Y45245D02*
Y29709D01*
X263599Y27079D01*
G75*
G02*
X264569Y25608I-630J-1471D01*
G01*
Y18415D01*
X266076D01*
Y44044D01*
G75*
G02*
X260969Y45245I-1760J3978D01*
G01*
G37*
X4084Y58022D02*
G36*
X4084Y58022D02*
Y47490D01*
X9583D01*
G75*
G02*
X18699I4558J0D01*
G01*
X20083D01*
G75*
G02*
X28199I4058J0D01*
G01*
X37021D01*
Y49624D01*
X43785D01*
Y47490D01*
X47261D01*
G75*
G02*
X53547I3143J-1246D01*
G01*
X57261D01*
G75*
G02*
X58806Y49223I3144J-1247D01*
G01*
Y50616D01*
Y50616D01*
G75*
G02*
X59276Y51748I1599J0D01*
G01*
X65549Y58022D01*
X4084D01*
G37*
X66694Y50578D02*
G36*
X66694Y50578D02*
Y47490D01*
X66728D01*
G75*
G02*
X74080I3676J-1246D01*
G01*
X99999D01*
G75*
G02*
X99967Y48022I4318J532D01*
G01*
G75*
G02*
X106526Y51769I4350J0D01*
G01*
G75*
G02*
X106218Y53115I2787J1346D01*
G01*
G75*
G02*
Y53117I3562J1D01*
G01*
G75*
G02*
X112418I3100J0D01*
G01*
G75*
G02*
X112111Y51772I-3106J2D01*
G01*
G75*
G02*
X118667Y48022I2206J-3750D01*
G01*
Y48022D01*
G75*
G02*
X118634Y47490I-4350J0D01*
G01*
X119999D01*
G75*
G02*
X119967Y48022I4318J532D01*
G01*
G75*
G02*
X127412Y51078I4350J0D01*
G01*
Y54680D01*
Y54680D01*
G75*
G02*
X127882Y55812I1599J0D01*
G01*
X130092Y58022D01*
X128167D01*
G75*
G02*
X120467I-3850J0D01*
G01*
X118167D01*
G75*
G02*
X110467I-3850J0D01*
G01*
X108167D01*
G75*
G02*
X100467I-3850J0D01*
G01*
X74138D01*
X66694Y50578D01*
G37*
X130612Y54017D02*
G36*
X130612Y54017D02*
Y50302D01*
G75*
G02*
X137415Y51075I3705J-2280D01*
G01*
Y54989D01*
Y54989D01*
G75*
G02*
X137885Y56122I1599J0D01*
G01*
X139785Y58022D01*
X138167D01*
G75*
G02*
X131748Y55154I-3850J0D01*
G01*
X130612Y54017D01*
G37*
X140615Y54326D02*
G36*
X140615Y54326D02*
Y50307D01*
G75*
G02*
X147418Y51072I3702J-2285D01*
G01*
Y54989D01*
Y54989D01*
G75*
G02*
X147888Y56122I1599J0D01*
G01*
X149789Y58022D01*
X148167D01*
G75*
G02*
X141591Y55303I-3850J0D01*
G01*
X140615Y54326D01*
G37*
X150618D02*
G36*
X150618Y54326D02*
Y50312D01*
G75*
G02*
X158667Y48022I3698J-2290D01*
G01*
G75*
G02*
X158634Y47490I-4350J0D01*
G01*
X159999D01*
G75*
G02*
X159967Y48022I4318J532D01*
G01*
G75*
G02*
X168667I4350J0D01*
G01*
G75*
G02*
X168634Y47490I-4350J0D01*
G01*
X169999D01*
G75*
G02*
X169967Y48022I4318J532D01*
G01*
G75*
G02*
X177743Y50702I4350J0D01*
G01*
Y54676D01*
Y54677D01*
G75*
G02*
X178213Y55809I1599J0D01*
G01*
X180426Y58022D01*
X178167D01*
G75*
G02*
X170467I-3850J0D01*
G01*
X168167D01*
G75*
G02*
X160467I-3850J0D01*
G01*
X158167D01*
G75*
G02*
X151593Y55301I-3850J0D01*
G01*
X150618Y54326D01*
G37*
X180943Y54014D02*
G36*
X180943Y54014D02*
Y50769D01*
G75*
G02*
X187746Y50698I3373J-2747D01*
G01*
Y54367D01*
Y54367D01*
G75*
G02*
X188217Y55500I1599J0D01*
G01*
X190476Y57759D01*
G75*
G02*
X190467Y58022I3992J269D01*
G01*
X188167D01*
G75*
G02*
X181930Y55001I-3850J0D01*
G01*
X180943Y54014D01*
G37*
X190946Y53704D02*
G36*
X190946Y53704D02*
Y50772D01*
G75*
G02*
X197750Y50693I3370J-2750D01*
G01*
Y54676D01*
Y54677D01*
G75*
G02*
X198220Y55809I1599J0D01*
G01*
X200432Y58022D01*
X198167D01*
G75*
G02*
X192109Y54867I-3850J0D01*
G01*
X190946Y53704D01*
G37*
X220643Y56422D02*
G36*
X220643Y56422D02*
Y50352D01*
G75*
G02*
X227759Y50681I3673J-2330D01*
G01*
Y54676D01*
Y54677D01*
G75*
G02*
X228229Y55809I1599J0D01*
G01*
X230442Y58022D01*
X228167D01*
G75*
G02*
X220815Y56422I-3850J0D01*
G01*
X220643D01*
G37*
X230959Y54014D02*
G36*
X230959Y54014D02*
Y50788D01*
G75*
G02*
X237762Y50677I3357J-2766D01*
G01*
Y54676D01*
Y54677D01*
G75*
G02*
X238232Y55809I1599J0D01*
G01*
X240445Y58022D01*
X238167D01*
G75*
G02*
X231939Y54994I-3850J0D01*
G01*
X230959Y54014D01*
G37*
X240962D02*
G36*
X240962Y54014D02*
Y50792D01*
G75*
G02*
X247765Y50673I3354J-2770D01*
G01*
Y54989D01*
G75*
G02*
X248536Y56357I1600J0D01*
G01*
X250496Y57546D01*
G75*
G02*
X250467Y58022I3866J479D01*
G01*
X248167D01*
G75*
G02*
X241941Y54993I-3850J0D01*
G01*
X240962Y54014D01*
G37*
X4084Y65435D02*
G36*
X4084Y65435D02*
Y58022D01*
X65549D01*
X72962Y65435D01*
X18300D01*
G75*
G02*
X14141Y61276I-4159J0D01*
G01*
G75*
G02*
X9982Y65435I0J4159D01*
G01*
X4084D01*
G37*
X73631Y61579D02*
G36*
X73631Y61579D02*
G75*
G02*
X73847Y61594I213J-1543D01*
G01*
X102879D01*
G75*
G02*
X108167Y58022I1437J-3572D01*
G01*
X110467D01*
G75*
G02*
X118167I3850J0D01*
G01*
X120467D01*
G75*
G02*
X128167I3850J0D01*
G01*
X130092D01*
X130487Y58417D01*
G75*
G02*
X138167Y58022I3830J-395D01*
G01*
X139785D01*
X140542Y58778D01*
G75*
G02*
X148167Y58022I3775J-756D01*
G01*
X149789D01*
X150541Y58774D01*
G75*
G02*
X158167Y58022I3776J-752D01*
G01*
X160467D01*
G75*
G02*
X168167I3850J0D01*
G01*
X170467D01*
G75*
G02*
X178167I3850J0D01*
G01*
X180426D01*
X180467Y58063D01*
G75*
G02*
X181466Y60610I3851J-41D01*
G01*
X179306Y62770D01*
X74822D01*
X73631Y61579D01*
G37*
X74510Y58394D02*
G36*
X74510Y58394D02*
X74138Y58022D01*
X100467D01*
G75*
G02*
X100485Y58394I4004J-9D01*
G01*
X74510D01*
G37*
X181167Y65435D02*
G36*
X181167Y65435D02*
X184754Y61847D01*
G75*
G02*
X188167Y58022I-438J-3826D01*
G01*
X190467D01*
G75*
G02*
X191322Y60441I3850J0D01*
G01*
X186329Y65435D01*
X181167D01*
G37*
X190854D02*
G36*
X190854Y65435D02*
X194418Y61871D01*
G75*
G02*
X198167Y58022I-102J-3849D01*
G01*
X200432D01*
X200467Y58056D01*
G75*
G02*
X207753Y59758I3850J-34D01*
G01*
Y65435D01*
X190854D01*
G37*
X210953D02*
G36*
X210953Y65435D02*
Y59895D01*
G75*
G02*
X217443Y60269I3364J-1873D01*
G01*
Y65435D01*
X210953D01*
G37*
X220643D02*
G36*
X220643Y65435D02*
Y59622D01*
X220815D01*
G75*
G02*
X228167Y58022I3502J-1600D01*
G01*
X230442D01*
X230467Y58047D01*
G75*
G02*
X238167Y58022I3850J-25D01*
G01*
X240445D01*
X240467Y58044D01*
G75*
G02*
X248167Y58022I3850J-22D01*
G01*
X250467D01*
G75*
G02*
X257769Y59727I3850J0D01*
G01*
Y65435D01*
X220643D01*
G37*
X260969D02*
G36*
X260969Y65435D02*
Y59923D01*
G75*
G02*
X266076Y61446I3348J-1901D01*
G01*
Y65435D01*
X260969D01*
G37*
X4084Y73309D02*
G36*
X4084Y73309D02*
Y65435D01*
X9982D01*
G75*
G02*
X14141Y69594I4159J0D01*
G01*
G75*
G02*
X18300Y65435I0J-4159D01*
G01*
X72962D01*
X73027Y65500D01*
G75*
G02*
X74160Y65970I1132J-1129D01*
G01*
X179969D01*
G75*
G02*
X181101Y65500I0J-1599D01*
G01*
X181167Y65435D01*
X186329D01*
X185555Y66209D01*
X70411D01*
G75*
G02*
X69278Y66677I-2J1599D01*
G01*
X62645Y73309D01*
X17800D01*
G75*
G02*
X10482I-3659J0D01*
G01*
X4084D01*
G37*
X67170D02*
G36*
X67170Y73309D02*
X71071Y69409D01*
X186217D01*
G75*
G02*
X187350Y68939I0J-1599D01*
G01*
X190854Y65435D01*
X207753D01*
Y73309D01*
X67170D01*
G37*
X210953D02*
G36*
X210953Y73309D02*
Y65435D01*
X217443D01*
Y68280D01*
G75*
G02*
X215943Y70934I1599J2655D01*
G01*
Y70935D01*
G75*
G02*
X217050Y73309I3100J0D01*
G01*
X210953D01*
G37*
X220643Y68280D02*
G36*
X220643Y68280D02*
Y65435D01*
X257769D01*
Y73309D01*
X252894D01*
G75*
G02*
X248043I-2426J3253D01*
G01*
X242894D01*
G75*
G02*
X238043I-2426J3253D01*
G01*
X221037D01*
G75*
G02*
X222143Y70935I-1993J-2374D01*
G01*
Y70934D01*
G75*
G02*
X220643Y68280I-3099J0D01*
G01*
G37*
X260969Y72535D02*
G36*
X260969Y72535D02*
Y65435D01*
X266076D01*
Y73309D01*
X262894D01*
G75*
G02*
X260969Y72535I-2426J3254D01*
G01*
G37*
X4084Y77495D02*
G36*
X4084Y77495D02*
Y73309D01*
X10482D01*
G75*
G02*
X17800I3659J0D01*
G01*
X62645D01*
X61615Y74338D01*
G75*
G02*
X57022Y77495I-1211J3157D01*
G01*
X53785D01*
G75*
G02*
X47022I-3381J0D01*
G01*
X43785D01*
G75*
G02*
X37022I-3381J0D01*
G01*
X4084D01*
G37*
X63785D02*
G36*
X63785Y77495D02*
G75*
G02*
X63707Y76772I-3391J1D01*
G01*
X67170Y73309D01*
X207753D01*
Y77032D01*
G75*
G02*
X207161Y77495I1599J2655D01*
G01*
X73785D01*
G75*
G02*
X67022I-3381J0D01*
G01*
X63785D01*
G37*
X210953Y77032D02*
G36*
X210953Y77032D02*
Y73309D01*
X217050D01*
G75*
G02*
X221037I1993J-2374D01*
G01*
X238043D01*
G75*
G02*
X236411Y76561I2426J3253D01*
G01*
G75*
G02*
X236520Y77495I4058J0D01*
G01*
X211545D01*
G75*
G02*
X210953Y77032I-2191J2192D01*
G01*
G37*
X244526Y76561D02*
G36*
X244526Y76561D02*
G75*
G02*
X242894Y73309I-4058J0D01*
G01*
X248043D01*
G75*
G02*
X246411Y76561I2426J3253D01*
G01*
G75*
G02*
X246520Y77495I4058J0D01*
G01*
X244417D01*
G75*
G02*
X244526Y76561I-3949J-934D01*
G01*
G37*
X254526D02*
G36*
X254526Y76561D02*
G75*
G02*
X252894Y73309I-4058J0D01*
G01*
X257769D01*
Y73532D01*
G75*
G02*
X256411Y76561I2701J3030D01*
G01*
G75*
G02*
X256520Y77495I4058J0D01*
G01*
X254417D01*
G75*
G02*
X254526Y76561I-3949J-934D01*
G01*
G37*
X264526D02*
G36*
X264526Y76561D02*
G75*
G02*
X262894Y73309I-4058J0D01*
G01*
X266076D01*
Y77495D01*
X264417D01*
G75*
G02*
X264526Y76561I-3949J-934D01*
G01*
G37*
X4084Y82313D02*
G36*
X4084Y82313D02*
Y77495D01*
X37022D01*
G75*
G02*
X43785I3381J0D01*
G01*
X47022D01*
G75*
G02*
X53785I3381J0D01*
G01*
X57022D01*
G75*
G02*
X63785I3381J0D01*
G01*
X67022D01*
G75*
G02*
X73785I3381J0D01*
G01*
X207161D01*
G75*
G02*
X206253Y79687I2191J2192D01*
G01*
Y79687D01*
G75*
G02*
X207704Y82313I3100J0D01*
G01*
X4084D01*
G37*
X211002D02*
G36*
X211002Y82313D02*
G75*
G02*
X212453Y79687I-1649J-2625D01*
G01*
Y79687D01*
G75*
G02*
X211545Y77495I-3099J0D01*
G01*
X236520D01*
G75*
G02*
X244417I3949J-934D01*
G01*
X246520D01*
G75*
G02*
X254417I3949J-934D01*
G01*
X256520D01*
G75*
G02*
X264417I3949J-934D01*
G01*
X266076D01*
Y82313D01*
X211002D01*
G37*
X139201Y20552D02*
G75*
G02*
X138243Y15017I-4122J-2137D01*
G01*
X141915D01*
G75*
G02*
X146838Y22712I3164J3398D01*
G01*
X147418Y23292D01*
Y44972D01*
G75*
G02*
X140615Y45737I-3102J3050D01*
G01*
Y22629D01*
G75*
G02*
X140145Y21496I-1600J0D01*
G01*
X139201Y20552D01*
G36*
X139201Y20552D02*
G75*
G02*
X138243Y15017I-4122J-2137D01*
G01*
X141915D01*
G75*
G02*
X146838Y22712I3164J3398D01*
G01*
X147418Y23292D01*
Y44972D01*
G75*
G02*
X140615Y45737I-3102J3050D01*
G01*
Y22629D01*
G75*
G02*
X140145Y21496I-1600J0D01*
G01*
X139201Y20552D01*
G37*
X179307Y20333D02*
G75*
G02*
X178243Y15017I-4228J-1919D01*
G01*
X181915D01*
G75*
G02*
X187165Y22563I3164J3398D01*
G01*
X187746Y23144D01*
Y45346D01*
G75*
G02*
X180943Y45276I-3430J2676D01*
G01*
Y22632D01*
G75*
G02*
X180473Y21500I-1600J0D01*
G01*
X179307Y20333D01*
G36*
X179307Y20333D02*
G75*
G02*
X178243Y15017I-4228J-1919D01*
G01*
X181915D01*
G75*
G02*
X187165Y22563I3164J3398D01*
G01*
X187746Y23144D01*
Y45346D01*
G75*
G02*
X180943Y45276I-3430J2676D01*
G01*
Y22632D01*
G75*
G02*
X180473Y21500I-1600J0D01*
G01*
X179307Y20333D01*
G37*
X189354Y20227D02*
G75*
G02*
X188243Y15017I-4275J-1812D01*
G01*
X191915D01*
G75*
G02*
X197066Y22611I3164J3398D01*
G01*
X197750Y23295D01*
Y45351D01*
G75*
G02*
X190946Y45272I-3433J2671D01*
G01*
Y22482D01*
G75*
G02*
X190476Y21349I-1600J0D01*
G01*
X189354Y20227D01*
G36*
X189354Y20227D02*
G75*
G02*
X188243Y15017I-4275J-1812D01*
G01*
X191915D01*
G75*
G02*
X197066Y22611I3164J3398D01*
G01*
X197750Y23295D01*
Y45351D01*
G75*
G02*
X190946Y45272I-3433J2671D01*
G01*
Y22482D01*
G75*
G02*
X190476Y21349I-1600J0D01*
G01*
X189354Y20227D01*
G37*
X199309Y20329D02*
G75*
G02*
X198243Y15017I-4230J-1914D01*
G01*
X201915D01*
G75*
G02*
X207169Y22561I3164J3398D01*
G01*
X207753Y23144D01*
Y45355D01*
G75*
G02*
X200950Y45268I-3436J2667D01*
G01*
Y22632D01*
G75*
G02*
X200480Y21500I-1600J0D01*
G01*
X199309Y20329D01*
G36*
X199309Y20329D02*
G75*
G02*
X198243Y15017I-4230J-1914D01*
G01*
X201915D01*
G75*
G02*
X207169Y22561I3164J3398D01*
G01*
X207753Y23144D01*
Y45355D01*
G75*
G02*
X200950Y45268I-3436J2667D01*
G01*
Y22632D01*
G75*
G02*
X200480Y21500I-1600J0D01*
G01*
X199309Y20329D01*
G37*
X209356Y20222D02*
G75*
G02*
X208243Y15017I-4277J-1807D01*
G01*
X211915D01*
G75*
G02*
X217171Y22560I3164J3398D01*
G01*
X217443Y22832D01*
Y44998D01*
G75*
G02*
X210953Y45264I-3127J3024D01*
G01*
Y22482D01*
G75*
G02*
X210483Y21349I-1600J0D01*
G01*
X209356Y20222D01*
G36*
X209356Y20222D02*
G75*
G02*
X208243Y15017I-4277J-1807D01*
G01*
X211915D01*
G75*
G02*
X217171Y22560I3164J3398D01*
G01*
X217443Y22832D01*
Y44998D01*
G75*
G02*
X210953Y45264I-3127J3024D01*
G01*
Y22482D01*
G75*
G02*
X210483Y21349I-1600J0D01*
G01*
X209356Y20222D01*
G37*
X219357Y20220D02*
G75*
G02*
X218243Y15017I-4278J-1805D01*
G01*
X221915D01*
G75*
G02*
X227072Y22608I3164J3398D01*
G01*
X227759Y23295D01*
Y45363D01*
G75*
G02*
X220643Y45692I-3443J2659D01*
G01*
Y22169D01*
G75*
G02*
X220173Y21037I-1600J0D01*
G01*
X219357Y20220D01*
G36*
X219357Y20220D02*
G75*
G02*
X218243Y15017I-4278J-1805D01*
G01*
X221915D01*
G75*
G02*
X227072Y22608I3164J3398D01*
G01*
X227759Y23295D01*
Y45363D01*
G75*
G02*
X220643Y45692I-3443J2659D01*
G01*
Y22169D01*
G75*
G02*
X220173Y21037I-1600J0D01*
G01*
X219357Y20220D01*
G37*
X229312Y20322D02*
G75*
G02*
X228243Y15017I-4233J-1907D01*
G01*
X231915D01*
G75*
G02*
X237075Y22607I3164J3398D01*
G01*
X237762Y23295D01*
Y45367D01*
G75*
G02*
X230959Y45256I-3446J2655D01*
G01*
Y22632D01*
G75*
G02*
X230489Y21500I-1600J0D01*
G01*
X229312Y20322D01*
G36*
X229312Y20322D02*
G75*
G02*
X228243Y15017I-4233J-1907D01*
G01*
X231915D01*
G75*
G02*
X237075Y22607I3164J3398D01*
G01*
X237762Y23295D01*
Y45367D01*
G75*
G02*
X230959Y45256I-3446J2655D01*
G01*
Y22632D01*
G75*
G02*
X230489Y21500I-1600J0D01*
G01*
X229312Y20322D01*
G37*
X239313Y20320D02*
G75*
G02*
X238243Y15017I-4234J-1906D01*
G01*
X241915D01*
G75*
G02*
X245079Y23058I3164J3398D01*
G01*
G75*
G02*
X248243Y15017I0J-4643D01*
G01*
X251915D01*
G75*
G02*
X255079Y23058I3164J3398D01*
G01*
G75*
G02*
X259211Y16298I0J-4643D01*
G01*
X261369Y18456D01*
Y24783D01*
X258239Y27914D01*
G75*
G02*
X257769Y29046I1130J1133D01*
G01*
Y45375D01*
G75*
G02*
X250965Y45248I-3452J2647D01*
G01*
Y41080D01*
G75*
G02*
X252465Y38424I-1600J-2655D01*
G01*
G75*
G02*
X246265I-3100J0D01*
G01*
G75*
G02*
X247765Y41080I3100J0D01*
G01*
Y45371D01*
G75*
G02*
X240962Y45252I-3449J2651D01*
G01*
Y22632D01*
G75*
G02*
X240492Y21500I-1600J0D01*
G01*
X239313Y20320D01*
G36*
X239313Y20320D02*
G75*
G02*
X238243Y15017I-4234J-1906D01*
G01*
X241915D01*
G75*
G02*
X245079Y23058I3164J3398D01*
G01*
G75*
G02*
X248243Y15017I0J-4643D01*
G01*
X251915D01*
G75*
G02*
X255079Y23058I3164J3398D01*
G01*
G75*
G02*
X259211Y16298I0J-4643D01*
G01*
X261369Y18456D01*
Y24783D01*
X258239Y27914D01*
G75*
G02*
X257769Y29046I1130J1133D01*
G01*
Y45375D01*
G75*
G02*
X250965Y45248I-3452J2647D01*
G01*
Y41080D01*
G75*
G02*
X252465Y38424I-1600J-2655D01*
G01*
G75*
G02*
X246265I-3100J0D01*
G01*
G75*
G02*
X247765Y41080I3100J0D01*
G01*
Y45371D01*
G75*
G02*
X240962Y45252I-3449J2651D01*
G01*
Y22632D01*
G75*
G02*
X240492Y21500I-1600J0D01*
G01*
X239313Y20320D01*
G37*
D02*
D11*
X11683Y47490D02*
X9583D01*
X12035Y8415D02*
X9935D01*
X12082Y65435D02*
X9982D01*
X14141Y45032D02*
Y42932D01*
Y49948D02*
Y52048D01*
Y63376D02*
Y61276D01*
Y67494D02*
Y69594D01*
X15079Y5372D02*
Y3273D01*
Y11458D02*
Y13557D01*
X16200Y65435D02*
X18300D01*
X16599Y47490D02*
X18699D01*
X25079Y5372D02*
Y3272D01*
Y11458D02*
Y13558D01*
X35079Y5372D02*
Y3272D01*
Y11458D02*
Y13558D01*
X45079Y5372D02*
Y3272D01*
Y11458D02*
Y13558D01*
X55079Y5372D02*
Y3272D01*
Y11458D02*
Y13558D01*
X60404Y46243D02*
X60406D01*
Y50616D01*
X74160Y64370D01*
X179969D01*
X184317Y60022D01*
Y58022D01*
X65079Y5372D02*
Y3272D01*
Y11458D02*
Y13558D01*
Y18415D02*
X65720D01*
X65094Y19040D01*
Y51241D01*
X73847Y59994D01*
X82438D01*
X104317D01*
Y58022D01*
X70404Y44462D02*
Y42362D01*
Y48025D02*
Y50125D01*
X72185Y46243D02*
X74285D01*
X75079Y5372D02*
Y3272D01*
Y11458D02*
Y13558D01*
X85079Y5372D02*
Y3272D01*
Y11458D02*
Y13558D01*
X95079Y5372D02*
Y3272D01*
Y11458D02*
Y13558D01*
X102067Y48022D02*
X99967D01*
X104317Y45772D02*
Y43672D01*
Y50272D02*
Y52372D01*
X105079Y5372D02*
Y3272D01*
Y11458D02*
Y13558D01*
Y18415D02*
Y19174D01*
X129012Y43107D01*
Y54680D01*
X134013Y59681D01*
X134317D01*
Y58022D01*
X109318Y53117D02*
X109006D01*
Y41547D01*
X95079Y27620D01*
Y18415D01*
X114317Y45772D02*
Y43672D01*
Y50272D02*
Y52372D01*
X115079Y5372D02*
Y3272D01*
Y11458D02*
Y13558D01*
X116567Y48022D02*
X118667D01*
X122067D02*
X119967D01*
X124317Y45772D02*
Y43672D01*
Y50272D02*
Y52372D01*
X125079Y5372D02*
Y3272D01*
X134317Y45772D02*
Y43672D01*
Y50272D02*
Y52372D01*
X135079Y5372D02*
Y3272D01*
Y18415D02*
X135117Y18418D01*
Y18731D01*
X139015Y22629D01*
Y54989D01*
X142048Y58022D01*
X144317D01*
Y45772D02*
Y43672D01*
Y50272D02*
Y52372D01*
X145079Y5372D02*
Y3272D01*
Y18415D02*
X145120Y18418D01*
Y18731D01*
X149018Y22629D01*
Y54989D01*
X152051Y58022D01*
X154317D01*
Y45772D02*
Y43672D01*
Y50272D02*
Y52372D01*
X155079Y5372D02*
Y3272D01*
X156567Y48022D02*
X158667D01*
X162067D02*
X159967D01*
X164317Y45772D02*
Y43672D01*
Y50272D02*
Y52372D01*
X165079Y5372D02*
Y3272D01*
X166567Y48022D02*
X168667D01*
X172067D02*
X169967D01*
X174317Y45772D02*
Y43672D01*
Y50272D02*
Y52372D01*
X175079Y5372D02*
Y3272D01*
Y18415D02*
X175129Y18418D01*
X179343Y22632D01*
Y54676D01*
X182689Y58022D01*
X184317D01*
Y45772D02*
Y43672D01*
Y50272D02*
Y52372D01*
X185079Y5372D02*
Y3272D01*
X194317Y45772D02*
Y43672D01*
Y50272D02*
Y52372D01*
Y58022D02*
X194345D01*
Y59681D01*
Y59365D01*
X189346Y54367D01*
Y22482D01*
X185079Y18214D01*
Y18415D01*
X194345Y59681D02*
X186217Y67809D01*
X70409D01*
X60722Y77495D01*
X60404D01*
X195079Y5372D02*
Y3272D01*
Y18415D02*
X195135Y18418D01*
X199350Y22632D01*
Y54676D01*
X202695Y58022D01*
X204317D01*
Y45772D02*
Y43672D01*
X205079Y5372D02*
Y3272D01*
X209353Y59681D02*
Y58022D01*
X214317D01*
X209353Y59681D02*
Y79687D01*
Y59681D02*
Y22482D01*
X205079Y18208D01*
Y18415D01*
X214317Y45772D02*
Y43672D01*
X215079Y5372D02*
Y3272D01*
X219043Y54367D02*
Y22169D01*
X215079Y18205D01*
Y18415D01*
X219043Y70935D02*
Y54367D01*
X224317Y45772D02*
Y43672D01*
Y50272D02*
Y52372D01*
Y58022D02*
X219043D01*
Y54367D01*
X225079Y5372D02*
Y3272D01*
Y18415D02*
X225145Y18418D01*
X229359Y22632D01*
Y54676D01*
X232705Y58022D01*
X234317D01*
Y45772D02*
Y43672D01*
Y50272D02*
Y52372D01*
X235079Y5372D02*
Y3272D01*
Y18415D02*
X235148Y18418D01*
X239362Y22632D01*
Y54676D01*
X242708Y58022D01*
X244317D01*
Y45772D02*
Y43672D01*
Y50272D02*
Y52372D01*
X245079Y5372D02*
Y3272D01*
X249365Y38424D02*
Y54989D01*
X254367Y58022D01*
X254317D01*
Y45772D02*
Y43672D01*
X255079Y5372D02*
Y3272D01*
X258122Y8415D02*
X260222D01*
X260469Y76561D02*
X259369Y75461D01*
Y29046D01*
X262807Y25608D01*
X262969D01*
Y17793D01*
X258593Y13417D01*
X119799D01*
X115079Y18137D01*
Y18415D01*
X264317Y45772D02*
Y43672D01*
D02*
D13*
X109318Y53117D03*
X209353Y79687D03*
X219043Y70935D03*
X249365Y38424D03*
D02*
D102*
X104317Y48022D03*
Y58022D03*
X114317Y48022D03*
Y58022D03*
X124317Y48022D03*
Y58022D03*
X134317Y48022D03*
Y58022D03*
X144317Y48022D03*
Y58022D03*
X154317Y48022D03*
Y58022D03*
X164317Y48022D03*
Y58022D03*
X174317Y48022D03*
Y58022D03*
X184317Y48022D03*
Y58022D03*
X194317Y48022D03*
Y58022D03*
X204317Y48022D03*
Y58022D03*
X214317Y48022D03*
Y58022D03*
X224317Y48022D03*
Y58022D03*
X234317Y48022D03*
Y58022D03*
X244317Y48022D03*
Y58022D03*
X254317Y48022D03*
Y58022D03*
X264317Y48022D03*
Y58022D03*
D02*
D103*
X15079Y8415D03*
D02*
D104*
Y18415D03*
X25079Y8415D03*
Y18415D03*
X35079Y8415D03*
Y18415D03*
X45079Y8415D03*
Y18415D03*
X55079Y8415D03*
Y18415D03*
X65079Y8415D03*
Y18415D03*
X75079Y8415D03*
Y18415D03*
X85079Y8415D03*
Y18415D03*
X95079Y8415D03*
Y18415D03*
X105079Y8415D03*
Y18415D03*
X115079Y8415D03*
Y18415D03*
X125079Y8415D03*
Y18415D03*
X135079Y8415D03*
Y18415D03*
X145079Y8415D03*
Y18415D03*
X155079Y8415D03*
Y18415D03*
X165079Y8415D03*
Y18415D03*
X175079Y8415D03*
Y18415D03*
X185079Y8415D03*
Y18415D03*
X195079Y8415D03*
Y18415D03*
X205079Y8415D03*
Y18415D03*
X215079Y8415D03*
Y18415D03*
X225079Y8415D03*
Y18415D03*
X235079Y8415D03*
Y18415D03*
X245079Y8415D03*
Y18415D03*
X255079Y8415D03*
Y18415D03*
D02*
D105*
X14141Y65435D03*
Y73309D03*
D02*
D106*
X40404Y46243D03*
D02*
D107*
Y77495D03*
X50404Y46243D03*
Y77495D03*
X60404Y46243D03*
Y77495D03*
X70404Y46243D03*
Y77495D03*
D02*
D108*
X14141Y47490D03*
X24141D03*
X240469Y76561D03*
X250469D03*
X260469D03*
X0Y0D02*
M02*
