G04 DesignSpark PCB Gerber Version 11.0 Build 5877*
%FSLAX35Y35*%
%MOIN*%
%ADD24R,0.03937X0.03937*%
%ADD106R,0.04563X0.04563*%
%ADD103R,0.07087X0.07087*%
%ADD11C,0.01000*%
%ADD10C,0.01200*%
%ADD13C,0.04000*%
%ADD107C,0.04563*%
%ADD105C,0.05118*%
%ADD102C,0.05500*%
%ADD108C,0.05916*%
%ADD104C,0.07087*%
%ADD109R,0.04134X0.01969*%
%ADD23R,0.03937X0.03937*%
X0Y0D02*
D02*
D10*
X1083Y600D02*
X269075D01*
Y85314D01*
X1083D01*
Y600D01*
X3484Y41850D02*
Y3000D01*
X266676D01*
Y44368D01*
G75*
G02*
X259967Y48022I-2360J3654D01*
G01*
G75*
G02*
X266676Y51676I4350J0D01*
G01*
Y54980D01*
G75*
G02*
X261717Y60862I-2360J3042D01*
G01*
X250054Y72525D01*
G75*
G02*
X246411Y76561I414J4037D01*
G01*
G75*
G02*
X254526I4058J0D01*
G01*
G75*
G02*
X253375Y73730I-4058J0D01*
G01*
X265383Y61721D01*
G75*
G02*
X266676Y61064I-1066J-3699D01*
G01*
Y82913D01*
X208390D01*
X208607Y82696D01*
G75*
G02*
X212453Y79687I746J-3009D01*
G01*
G75*
G02*
X206253I-3100J0D01*
G01*
G75*
G02*
X206309Y80276I3100J0D01*
G01*
X72329D01*
G75*
G02*
X73644Y76527I-1925J-2780D01*
G01*
X77636Y72535D01*
X216388D01*
G75*
G02*
X222143Y70935I2655J-1600D01*
G01*
G75*
G02*
X221539Y69096I-3100J0D01*
G01*
X230734D01*
X236698Y75060D01*
G75*
G02*
X236411Y76561I3770J1501D01*
G01*
G75*
G02*
X244526I4058J0D01*
G01*
G75*
G02*
X238959Y72795I-4058J0D01*
G01*
X232530Y66366D01*
G75*
G02*
X231397Y65896I-1133J1130D01*
G01*
X109671D01*
X105917Y62141D01*
Y61524D01*
G75*
G02*
X108167Y58022I-1600J-3502D01*
G01*
G75*
G02*
X100467I-3850J0D01*
G01*
G75*
G02*
X102717Y61524I3850J0D01*
G01*
Y62804D01*
G75*
G02*
X103187Y63937I1600J0D01*
G01*
X107876Y68626D01*
G75*
G02*
X109009Y69096I1133J-1130D01*
G01*
X216547D01*
G75*
G02*
X216388Y69335I2496J1837D01*
G01*
X76973D01*
G75*
G02*
X75841Y69805I0J1600D01*
G01*
X71386Y74259D01*
G75*
G02*
X68479Y80276I-982J3236D01*
G01*
X62329D01*
G75*
G02*
X63785Y77495I-1925J-2780D01*
G01*
G75*
G02*
X57022I-3381J0D01*
G01*
G75*
G02*
X58479Y80276I3381J0D01*
G01*
X55442D01*
X53641Y78474D01*
G75*
G02*
X53785Y77495I-3237J-979D01*
G01*
G75*
G02*
X47022I-3381J0D01*
G01*
G75*
G02*
X51376Y80734I3381J0D01*
G01*
X53553Y82913D01*
X3484D01*
Y67230D01*
X10646Y74391D01*
G75*
G02*
X15337Y76767I3496J-1083D01*
G01*
X17048Y78478D01*
G75*
G02*
X18181Y78948I1133J-1130D01*
G01*
X27013D01*
Y80417D01*
X33151D01*
Y78948D01*
X37351D01*
G75*
G02*
X43785Y77495I3053J-1453D01*
G01*
G75*
G02*
X37509Y75748I-3381J0D01*
G01*
X33151D01*
Y74281D01*
X27013D01*
Y75748D01*
X18843D01*
X17599Y74504D01*
G75*
G02*
Y72113I-3459J-1196D01*
G01*
X17803Y71909D01*
X20867D01*
G75*
G02*
X22000Y71439I0J-1600D01*
G01*
X27013Y66425D01*
Y67088D01*
X26513D01*
Y74224D01*
X33651D01*
Y67088D01*
X33151D01*
Y61151D01*
X27013D01*
Y62618D01*
X26957D01*
G75*
G02*
X25825Y63088I0J1600D01*
G01*
X20205Y68709D01*
X17143D01*
G75*
G02*
X16561Y68817I-2J1600D01*
G01*
G75*
G02*
X14141Y61276I-2420J-3383D01*
G01*
G75*
G02*
X9982Y65435I0J4159D01*
G01*
G75*
G02*
X16070Y69119I4159J0D01*
G01*
G75*
G02*
X16009Y69178I1074J1186D01*
G01*
X15336Y69850D01*
G75*
G02*
X11528Y70748I-1195J3459D01*
G01*
X5738Y64958D01*
Y44122D01*
X12045Y37815D01*
Y38679D01*
X18181D01*
Y32541D01*
X12045D01*
Y34011D01*
X11986D01*
G75*
G02*
X10854Y34481I0J1600D01*
G01*
X3484Y41850D01*
X256411Y76561D02*
G75*
G02*
X264526I4058J0D01*
G01*
G75*
G02*
X256411I-4058J0D01*
G01*
X239967Y48022D02*
G75*
G02*
X248667I4350J0D01*
G01*
G75*
G02*
X239967I-4350J0D01*
G01*
X240467Y58022D02*
G75*
G02*
X248167I3850J0D01*
G01*
G75*
G02*
X240467I-3850J0D01*
G01*
X229967Y48022D02*
G75*
G02*
X238667I4350J0D01*
G01*
G75*
G02*
X229967I-4350J0D01*
G01*
X230467Y58022D02*
G75*
G02*
X238167I3850J0D01*
G01*
G75*
G02*
X230467I-3850J0D01*
G01*
X170467D02*
G75*
G02*
X178167I3850J0D01*
G01*
G75*
G02*
X173150Y54353I-3850J0D01*
G01*
X170782Y51985D01*
G75*
G02*
X169650Y51516I-1132J1130D01*
G01*
X166908D01*
G75*
G02*
X168667Y48022I-2592J-3494D01*
G01*
G75*
G02*
X159967I-4350J0D01*
G01*
G75*
G02*
X161725Y51516I4350J0D01*
G01*
X156908D01*
G75*
G02*
X158667Y48022I-2592J-3494D01*
G01*
G75*
G02*
X149967I-4350J0D01*
G01*
G75*
G02*
X151725Y51516I4350J0D01*
G01*
X146908D01*
G75*
G02*
X148667Y48022I-2592J-3494D01*
G01*
G75*
G02*
X139967I-4350J0D01*
G01*
G75*
G02*
X141725Y51516I4350J0D01*
G01*
X136908D01*
G75*
G02*
X138667Y48022I-2592J-3494D01*
G01*
G75*
G02*
X129967I-4350J0D01*
G01*
G75*
G02*
X131725Y51516I4350J0D01*
G01*
X126908D01*
G75*
G02*
X128667Y48022I-2592J-3494D01*
G01*
G75*
G02*
X119967I-4350J0D01*
G01*
G75*
G02*
X121725Y51516I4350J0D01*
G01*
X116908D01*
G75*
G02*
X118667Y48022I-2592J-3494D01*
G01*
G75*
G02*
X109967I-4350J0D01*
G01*
G75*
G02*
X110610Y50298I4350J0D01*
G01*
G75*
G02*
X108022Y50300I-1292J2819D01*
G01*
G75*
G02*
X108667Y48022I-3706J-2278D01*
G01*
G75*
G02*
X99967I-4350J0D01*
G01*
G75*
G02*
X106526Y51769I4350J0D01*
G01*
G75*
G02*
X111974Y54716I2792J1348D01*
G01*
X112344D01*
G75*
G02*
X110467Y58022I1972J3306D01*
G01*
G75*
G02*
X118167I3850J0D01*
G01*
G75*
G02*
X116289Y54716I-3850J0D01*
G01*
X122344D01*
G75*
G02*
X120467Y58022I1972J3306D01*
G01*
G75*
G02*
X128167I3850J0D01*
G01*
G75*
G02*
X126289Y54716I-3850J0D01*
G01*
X132344D01*
G75*
G02*
X130467Y58022I1972J3306D01*
G01*
G75*
G02*
X138167I3850J0D01*
G01*
G75*
G02*
X136289Y54716I-3850J0D01*
G01*
X142344D01*
G75*
G02*
X140467Y58022I1972J3306D01*
G01*
G75*
G02*
X148167I3850J0D01*
G01*
G75*
G02*
X146289Y54716I-3850J0D01*
G01*
X152344D01*
G75*
G02*
X150467Y58022I1972J3306D01*
G01*
G75*
G02*
X158167I3850J0D01*
G01*
G75*
G02*
X156289Y54716I-3850J0D01*
G01*
X162344D01*
G75*
G02*
X160467Y58022I1972J3306D01*
G01*
G75*
G02*
X168167I3850J0D01*
G01*
G75*
G02*
X166289Y54716I-3850J0D01*
G01*
X168987D01*
X170778Y56506D01*
G75*
G02*
X170467Y58022I3539J1516D01*
G01*
X169967Y48022D02*
G75*
G02*
X178667I4350J0D01*
G01*
G75*
G02*
X169967I-4350J0D01*
G01*
X179967D02*
G75*
G02*
X188667I4350J0D01*
G01*
G75*
G02*
X179967I-4350J0D01*
G01*
X180467Y58022D02*
G75*
G02*
X188167I3850J0D01*
G01*
G75*
G02*
X180467I-3850J0D01*
G01*
X189967Y48022D02*
G75*
G02*
X198667I4350J0D01*
G01*
G75*
G02*
X189967I-4350J0D01*
G01*
X190467Y58022D02*
G75*
G02*
X198167I3850J0D01*
G01*
G75*
G02*
X190467I-3850J0D01*
G01*
X199967Y48022D02*
G75*
G02*
X208667I4350J0D01*
G01*
G75*
G02*
X199967I-4350J0D01*
G01*
X200467Y58022D02*
G75*
G02*
X208167I3850J0D01*
G01*
G75*
G02*
X200467I-3850J0D01*
G01*
X209967Y48022D02*
G75*
G02*
X218667I4350J0D01*
G01*
G75*
G02*
X209967I-4350J0D01*
G01*
X210467Y58022D02*
G75*
G02*
X218167I3850J0D01*
G01*
G75*
G02*
X210467I-3850J0D01*
G01*
X219967Y48022D02*
G75*
G02*
X228667I4350J0D01*
G01*
G75*
G02*
X219967I-4350J0D01*
G01*
X220467Y58022D02*
G75*
G02*
X228167I3850J0D01*
G01*
G75*
G02*
X220467I-3850J0D01*
G01*
X66522Y46243D02*
G75*
G02*
X74285I3881J0D01*
G01*
G75*
G02*
X66522I-3881J0D01*
G01*
X246710Y40024D02*
G75*
G02*
X252465Y38424I2655J-1600D01*
G01*
G75*
G02*
X246710Y36824I-3100J0D01*
G01*
X95454D01*
X79194Y20565D01*
G75*
G02*
X75079Y13772I-4116J-2150D01*
G01*
G75*
G02*
X70435Y18415I0J4643D01*
G01*
G75*
G02*
X76822Y22719I4643J0D01*
G01*
X93659Y39554D01*
G75*
G02*
X94791Y40024I1133J-1130D01*
G01*
X246710D01*
X255079Y23058D02*
G75*
G02*
Y13772I0J-4643D01*
G01*
G75*
G02*
X250435Y18415I0J4643D01*
G01*
G75*
G02*
X255079Y23058I4643J0D01*
G01*
X105079D02*
G75*
G02*
X109722Y18415I0J-4643D01*
G01*
G75*
G02*
X105079Y13772I-4643J0D01*
G01*
G75*
G02*
X100435Y18415I0J4643D01*
G01*
G75*
G02*
X105079Y23058I4643J0D01*
G01*
X115079D02*
G75*
G02*
X119722Y18415I0J-4643D01*
G01*
G75*
G02*
X115079Y13772I-4643J0D01*
G01*
G75*
G02*
X110435Y18415I0J4643D01*
G01*
G75*
G02*
X115079Y23058I4643J0D01*
G01*
X125079D02*
G75*
G02*
Y13772I0J-4643D01*
G01*
G75*
G02*
X120435Y18415I0J4643D01*
G01*
G75*
G02*
X125079Y23058I4643J0D01*
G01*
X135079D02*
G75*
G02*
X139722Y18415I0J-4643D01*
G01*
G75*
G02*
X135079Y13772I-4643J0D01*
G01*
G75*
G02*
X130435Y18415I0J4643D01*
G01*
G75*
G02*
X135079Y23058I4643J0D01*
G01*
X145079D02*
G75*
G02*
X149722Y18415I0J-4643D01*
G01*
G75*
G02*
X145079Y13772I-4643J0D01*
G01*
G75*
G02*
X140435Y18415I0J4643D01*
G01*
G75*
G02*
X145079Y23058I4643J0D01*
G01*
X155079D02*
G75*
G02*
X159722Y18415I0J-4643D01*
G01*
G75*
G02*
X155079Y13772I-4643J0D01*
G01*
G75*
G02*
X150435Y18415I0J4643D01*
G01*
G75*
G02*
X155079Y23058I4643J0D01*
G01*
X165079D02*
G75*
G02*
X169722Y18415I0J-4643D01*
G01*
G75*
G02*
X165079Y13772I-4643J0D01*
G01*
G75*
G02*
X160435Y18415I0J4643D01*
G01*
G75*
G02*
X165079Y23058I4643J0D01*
G01*
X175079D02*
G75*
G02*
Y13772I0J-4643D01*
G01*
G75*
G02*
X170435Y18415I0J4643D01*
G01*
G75*
G02*
X175079Y23058I4643J0D01*
G01*
X185079D02*
G75*
G02*
X189722Y18415I0J-4643D01*
G01*
G75*
G02*
X185079Y13772I-4643J0D01*
G01*
G75*
G02*
X180435Y18415I0J4643D01*
G01*
G75*
G02*
X185079Y23058I4643J0D01*
G01*
X195079D02*
G75*
G02*
X199722Y18415I0J-4643D01*
G01*
G75*
G02*
X195079Y13772I-4643J0D01*
G01*
G75*
G02*
X190435Y18415I0J4643D01*
G01*
G75*
G02*
X195079Y23058I4643J0D01*
G01*
X205079D02*
G75*
G02*
Y13772I0J-4643D01*
G01*
G75*
G02*
X200435Y18415I0J4643D01*
G01*
G75*
G02*
X205079Y23058I4643J0D01*
G01*
X215079D02*
G75*
G02*
X219722Y18415I0J-4643D01*
G01*
G75*
G02*
X215079Y13772I-4643J0D01*
G01*
G75*
G02*
X210435Y18415I0J4643D01*
G01*
G75*
G02*
X215079Y23058I4643J0D01*
G01*
X225079D02*
G75*
G02*
Y13772I0J-4643D01*
G01*
G75*
G02*
X220435Y18415I0J4643D01*
G01*
G75*
G02*
X225079Y23058I4643J0D01*
G01*
X235079D02*
G75*
G02*
X239722Y18415I0J-4643D01*
G01*
G75*
G02*
X235079Y13772I-4643J0D01*
G01*
G75*
G02*
X230435Y18415I0J4643D01*
G01*
G75*
G02*
X235079Y23058I4643J0D01*
G01*
X245079D02*
G75*
G02*
X249722Y18415I0J-4643D01*
G01*
G75*
G02*
X245079Y13772I-4643J0D01*
G01*
G75*
G02*
X240435Y18415I0J4643D01*
G01*
G75*
G02*
X245079Y23058I4643J0D01*
G01*
X85079D02*
G75*
G02*
X89722Y18415I0J-4643D01*
G01*
G75*
G02*
X85079Y13772I-4643J0D01*
G01*
G75*
G02*
X80435Y18415I0J4643D01*
G01*
G75*
G02*
X85079Y23058I4643J0D01*
G01*
X95079D02*
G75*
G02*
Y13772I0J-4643D01*
G01*
G75*
G02*
X90435Y18415I0J4643D01*
G01*
G75*
G02*
X95079Y23058I4643J0D01*
G01*
X57022Y46243D02*
G75*
G02*
X63785I3381J0D01*
G01*
G75*
G02*
X57022I-3381J0D01*
G01*
X65079Y23058D02*
G75*
G02*
X69722Y18415I0J-4643D01*
G01*
G75*
G02*
X65079Y13772I-4643J0D01*
G01*
G75*
G02*
X60435Y18415I0J4643D01*
G01*
G75*
G02*
X65079Y23058I4643J0D01*
G01*
X57072Y35427D02*
X57689D01*
Y28293D01*
X50553D01*
Y35427D01*
X50935D01*
Y41494D01*
X52554D01*
Y43633D01*
G75*
G02*
X47022Y46243I-2150J2610D01*
G01*
G75*
G02*
X53383Y47843I3381J0D01*
G01*
X54154D01*
G75*
G02*
X55754Y46243I0J-1600D01*
G01*
Y41494D01*
X57072D01*
Y35427D01*
X37021Y49624D02*
X43785D01*
Y42862D01*
X37021D01*
Y44643D01*
X31021D01*
G75*
G02*
X29889Y45113I0J1600D01*
G01*
X29112Y45890D01*
X27870D01*
G75*
G02*
X20083Y47490I-3729J1600D01*
G01*
G75*
G02*
X27870Y49090I4058J0D01*
G01*
X28483D01*
Y54458D01*
X27013D01*
Y60596D01*
X33151D01*
Y54458D01*
X31683D01*
Y47844D01*
X31684Y47843D01*
X37021D01*
Y49624D01*
X48910Y34927D02*
X50496D01*
Y28793D01*
X44360D01*
Y34125D01*
X42305Y32070D01*
Y30966D01*
X35970D01*
Y35135D01*
X40845D01*
X41294Y35584D01*
X35470D01*
Y40754D01*
X42805D01*
Y38091D01*
X44242Y39528D01*
Y41494D01*
X50380D01*
Y35356D01*
X48910D01*
Y34927D01*
X55079Y23058D02*
G75*
G02*
X59722Y18415I0J-4643D01*
G01*
G75*
G02*
X55079Y13772I-4643J0D01*
G01*
G75*
G02*
X50435Y18415I0J4643D01*
G01*
G75*
G02*
X55079Y23058I4643J0D01*
G01*
X45079D02*
G75*
G02*
Y13772I0J-4643D01*
G01*
G75*
G02*
X40435Y18415I0J4643D01*
G01*
G75*
G02*
X45079Y23058I4643J0D01*
G01*
X28490Y37694D02*
X34824D01*
Y33525D01*
X28490D01*
Y34011D01*
X24874D01*
Y32541D01*
X23405D01*
Y29671D01*
G75*
G02*
X22436Y28200I-1600J0D01*
G01*
X16915Y22680D01*
G75*
G02*
X15079Y13772I-1837J-4265D01*
G01*
G75*
G02*
X13480Y22774I0J4643D01*
G01*
Y23107D01*
G75*
G02*
X13950Y24240I1600J0D01*
G01*
X20205Y30495D01*
Y32541D01*
X18738D01*
Y38679D01*
X24874D01*
Y37211D01*
X28490D01*
Y37694D01*
X35079Y23058D02*
G75*
G02*
X39722Y18415I0J-4643D01*
G01*
G75*
G02*
X35079Y13772I-4643J0D01*
G01*
G75*
G02*
X30435Y18415I0J4643D01*
G01*
G75*
G02*
X35079Y23058I4643J0D01*
G01*
X25079D02*
G75*
G02*
X29722Y18415I0J-4643D01*
G01*
G75*
G02*
X25079Y13772I-4643J0D01*
G01*
G75*
G02*
X20435Y18415I0J4643D01*
G01*
G75*
G02*
X25079Y23058I4643J0D01*
G01*
X9583Y47490D02*
G75*
G02*
X18699I4558J0D01*
G01*
G75*
G02*
X9583I-4558J0D01*
G01*
X250079Y9620D02*
G75*
G02*
X260222Y8415I5000J-1206D01*
G01*
G75*
G02*
X250079Y7209I-5143J0D01*
G01*
G75*
G02*
X240079I-5000J1206D01*
G01*
G75*
G02*
X230079I-5000J1206D01*
G01*
G75*
G02*
X220079I-5000J1206D01*
G01*
G75*
G02*
X210079I-5000J1206D01*
G01*
G75*
G02*
X200079I-5000J1206D01*
G01*
G75*
G02*
X190079I-5000J1206D01*
G01*
G75*
G02*
X180079I-5000J1206D01*
G01*
G75*
G02*
X170079I-5000J1206D01*
G01*
G75*
G02*
X160079I-5000J1206D01*
G01*
G75*
G02*
X150079I-5000J1206D01*
G01*
G75*
G02*
X140079I-5000J1206D01*
G01*
G75*
G02*
X130079I-5000J1206D01*
G01*
G75*
G02*
X120079I-5000J1206D01*
G01*
G75*
G02*
X110079I-5000J1206D01*
G01*
G75*
G02*
X100079I-5000J1206D01*
G01*
G75*
G02*
X90079I-5000J1206D01*
G01*
G75*
G02*
X80079I-5000J1206D01*
G01*
G75*
G02*
X70079I-5000J1206D01*
G01*
G75*
G02*
X60079I-5000J1206D01*
G01*
G75*
G02*
X50079I-5000J1206D01*
G01*
G75*
G02*
X40079I-5000J1206D01*
G01*
G75*
G02*
X30079I-5000J1206D01*
G01*
G75*
G02*
X20222Y6722I-5000J1206D01*
G01*
Y3273D01*
X9935D01*
Y13557D01*
X20222D01*
Y10108D01*
G75*
G02*
X30079Y9620I4857J-1693D01*
G01*
G75*
G02*
X40079I5000J-1206D01*
G01*
G75*
G02*
X50079I5000J-1206D01*
G01*
G75*
G02*
X60079I5000J-1206D01*
G01*
G75*
G02*
X70079I5000J-1206D01*
G01*
G75*
G02*
X80079I5000J-1206D01*
G01*
G75*
G02*
X90079I5000J-1206D01*
G01*
G75*
G02*
X100079I5000J-1206D01*
G01*
G75*
G02*
X110079I5000J-1206D01*
G01*
G75*
G02*
X120079I5000J-1206D01*
G01*
G75*
G02*
X130079I5000J-1206D01*
G01*
G75*
G02*
X140079I5000J-1206D01*
G01*
G75*
G02*
X150079I5000J-1206D01*
G01*
G75*
G02*
X160079I5000J-1206D01*
G01*
G75*
G02*
X170079I5000J-1206D01*
G01*
G75*
G02*
X180079I5000J-1206D01*
G01*
G75*
G02*
X190079I5000J-1206D01*
G01*
G75*
G02*
X200079I5000J-1206D01*
G01*
G75*
G02*
X210079I5000J-1206D01*
G01*
G75*
G02*
X220079I5000J-1206D01*
G01*
G75*
G02*
X230079I5000J-1206D01*
G01*
G75*
G02*
X240079I5000J-1206D01*
G01*
G75*
G02*
X250079I5000J-1206D01*
G01*
X250467Y58022D02*
G75*
G02*
X258167I3850J0D01*
G01*
G75*
G02*
X250467I-3850J0D01*
G01*
X249967Y48022D02*
G75*
G02*
X258667I4350J0D01*
G01*
G75*
G02*
X249967I-4350J0D01*
G01*
X4084Y8415D02*
G36*
X4084Y8415D02*
Y3600D01*
X9935D01*
Y8415D01*
X4084D01*
G37*
X20222Y6722D02*
G36*
X20222Y6722D02*
Y3600D01*
X23270D01*
G75*
G02*
X20222Y6722I1808J4815D01*
G01*
G37*
X30079Y7209D02*
G36*
X30079Y7209D02*
G75*
G02*
X26887Y3600I-5000J1206D01*
G01*
X33270D01*
G75*
G02*
X30079Y7209I1808J4815D01*
G01*
G37*
X40079D02*
G36*
X40079Y7209D02*
G75*
G02*
X36887Y3600I-5000J1206D01*
G01*
X43270D01*
G75*
G02*
X40079Y7209I1808J4815D01*
G01*
G37*
X50079D02*
G36*
X50079Y7209D02*
G75*
G02*
X46887Y3600I-5000J1206D01*
G01*
X53270D01*
G75*
G02*
X50079Y7209I1808J4815D01*
G01*
G37*
X60079D02*
G36*
X60079Y7209D02*
G75*
G02*
X56887Y3600I-5000J1206D01*
G01*
X63270D01*
G75*
G02*
X60079Y7209I1808J4815D01*
G01*
G37*
X70079D02*
G36*
X70079Y7209D02*
G75*
G02*
X66887Y3600I-5000J1206D01*
G01*
X73270D01*
G75*
G02*
X70079Y7209I1808J4815D01*
G01*
G37*
X80079D02*
G36*
X80079Y7209D02*
G75*
G02*
X76887Y3600I-5000J1206D01*
G01*
X83270D01*
G75*
G02*
X80079Y7209I1808J4815D01*
G01*
G37*
X90079D02*
G36*
X90079Y7209D02*
G75*
G02*
X86887Y3600I-5000J1206D01*
G01*
X93270D01*
G75*
G02*
X90079Y7209I1808J4815D01*
G01*
G37*
X100079D02*
G36*
X100079Y7209D02*
G75*
G02*
X96887Y3600I-5000J1206D01*
G01*
X103270D01*
G75*
G02*
X100079Y7209I1808J4815D01*
G01*
G37*
X110079D02*
G36*
X110079Y7209D02*
G75*
G02*
X106887Y3600I-5000J1206D01*
G01*
X113270D01*
G75*
G02*
X110079Y7209I1808J4815D01*
G01*
G37*
X120079D02*
G36*
X120079Y7209D02*
G75*
G02*
X116887Y3600I-5000J1206D01*
G01*
X123270D01*
G75*
G02*
X120079Y7209I1808J4815D01*
G01*
G37*
X130079D02*
G36*
X130079Y7209D02*
G75*
G02*
X126887Y3600I-5000J1206D01*
G01*
X133270D01*
G75*
G02*
X130079Y7209I1808J4815D01*
G01*
G37*
X140079D02*
G36*
X140079Y7209D02*
G75*
G02*
X136887Y3600I-5000J1206D01*
G01*
X143270D01*
G75*
G02*
X140079Y7209I1808J4815D01*
G01*
G37*
X150079D02*
G36*
X150079Y7209D02*
G75*
G02*
X146887Y3600I-5000J1206D01*
G01*
X153270D01*
G75*
G02*
X150079Y7209I1808J4815D01*
G01*
G37*
X160079D02*
G36*
X160079Y7209D02*
G75*
G02*
X156887Y3600I-5000J1206D01*
G01*
X163270D01*
G75*
G02*
X160079Y7209I1808J4815D01*
G01*
G37*
X170079D02*
G36*
X170079Y7209D02*
G75*
G02*
X166887Y3600I-5000J1206D01*
G01*
X173270D01*
G75*
G02*
X170079Y7209I1808J4815D01*
G01*
G37*
X180079D02*
G36*
X180079Y7209D02*
G75*
G02*
X176887Y3600I-5000J1206D01*
G01*
X183270D01*
G75*
G02*
X180079Y7209I1808J4815D01*
G01*
G37*
X190079D02*
G36*
X190079Y7209D02*
G75*
G02*
X186887Y3600I-5000J1206D01*
G01*
X193270D01*
G75*
G02*
X190079Y7209I1808J4815D01*
G01*
G37*
X200079D02*
G36*
X200079Y7209D02*
G75*
G02*
X196887Y3600I-5000J1206D01*
G01*
X203270D01*
G75*
G02*
X200079Y7209I1808J4815D01*
G01*
G37*
X210079D02*
G36*
X210079Y7209D02*
G75*
G02*
X206887Y3600I-5000J1206D01*
G01*
X213270D01*
G75*
G02*
X210079Y7209I1808J4815D01*
G01*
G37*
X220079D02*
G36*
X220079Y7209D02*
G75*
G02*
X216887Y3600I-5000J1206D01*
G01*
X223270D01*
G75*
G02*
X220079Y7209I1808J4815D01*
G01*
G37*
X230079D02*
G36*
X230079Y7209D02*
G75*
G02*
X226887Y3600I-5000J1206D01*
G01*
X233270D01*
G75*
G02*
X230079Y7209I1808J4815D01*
G01*
G37*
X240079D02*
G36*
X240079Y7209D02*
G75*
G02*
X236887Y3600I-5000J1206D01*
G01*
X243270D01*
G75*
G02*
X240079Y7209I1808J4815D01*
G01*
G37*
X250079D02*
G36*
X250079Y7209D02*
G75*
G02*
X246887Y3600I-5000J1206D01*
G01*
X253270D01*
G75*
G02*
X250079Y7209I1809J4815D01*
G01*
G37*
X260222Y8415D02*
G36*
X260222Y8415D02*
G75*
G02*
X256887Y3600I-5143J0D01*
G01*
X266076D01*
Y8415D01*
X260222D01*
G37*
X4084Y18415D02*
G36*
X4084Y18415D02*
Y8415D01*
X9935D01*
Y13557D01*
X20222D01*
Y10108D01*
G75*
G02*
X30079Y9620I4857J-1693D01*
G01*
G75*
G02*
X40079I5000J-1206D01*
G01*
G75*
G02*
X50079I5000J-1206D01*
G01*
G75*
G02*
X60079I5000J-1206D01*
G01*
G75*
G02*
X70079I5000J-1206D01*
G01*
G75*
G02*
X80079I5000J-1206D01*
G01*
G75*
G02*
X90079I5000J-1206D01*
G01*
G75*
G02*
X100079I5000J-1206D01*
G01*
G75*
G02*
X110079I5000J-1206D01*
G01*
G75*
G02*
X120079I5000J-1206D01*
G01*
G75*
G02*
X130079I5000J-1206D01*
G01*
G75*
G02*
X140079I5000J-1206D01*
G01*
G75*
G02*
X150079I5000J-1206D01*
G01*
G75*
G02*
X160079I5000J-1206D01*
G01*
G75*
G02*
X170079I5000J-1206D01*
G01*
G75*
G02*
X180079I5000J-1206D01*
G01*
G75*
G02*
X190079I5000J-1206D01*
G01*
G75*
G02*
X200079I5000J-1206D01*
G01*
G75*
G02*
X210079I5000J-1206D01*
G01*
G75*
G02*
X220079I5000J-1206D01*
G01*
G75*
G02*
X230079I5000J-1206D01*
G01*
G75*
G02*
X240079I5000J-1206D01*
G01*
G75*
G02*
X250079I5000J-1206D01*
G01*
G75*
G02*
X260222Y8415I5000J-1206D01*
G01*
X266076D01*
Y18415D01*
X259722D01*
G75*
G02*
X255079Y13772I-4643J0D01*
G01*
G75*
G02*
X250435Y18415I0J4643D01*
G01*
Y18415D01*
X249722D01*
Y18415D01*
G75*
G02*
X245079Y13772I-4643J0D01*
G01*
G75*
G02*
X240435Y18415I0J4643D01*
G01*
Y18415D01*
X239722D01*
Y18415D01*
G75*
G02*
X235079Y13772I-4643J0D01*
G01*
G75*
G02*
X230435Y18415I0J4643D01*
G01*
Y18415D01*
X229722D01*
G75*
G02*
X225079Y13772I-4643J0D01*
G01*
G75*
G02*
X220435Y18415I0J4643D01*
G01*
Y18415D01*
X219722D01*
Y18415D01*
G75*
G02*
X215079Y13772I-4643J0D01*
G01*
G75*
G02*
X210435Y18415I0J4643D01*
G01*
Y18415D01*
X209722D01*
G75*
G02*
X205079Y13772I-4643J0D01*
G01*
G75*
G02*
X200435Y18415I0J4643D01*
G01*
Y18415D01*
X199722D01*
Y18415D01*
G75*
G02*
X195079Y13772I-4643J0D01*
G01*
G75*
G02*
X190435Y18415I0J4643D01*
G01*
Y18415D01*
X189722D01*
Y18415D01*
G75*
G02*
X185079Y13772I-4643J0D01*
G01*
G75*
G02*
X180435Y18415I0J4643D01*
G01*
Y18415D01*
X179722D01*
G75*
G02*
X175079Y13772I-4643J0D01*
G01*
G75*
G02*
X170435Y18415I0J4643D01*
G01*
Y18415D01*
X169722D01*
Y18415D01*
G75*
G02*
X165079Y13772I-4643J0D01*
G01*
G75*
G02*
X160435Y18415I0J4643D01*
G01*
Y18415D01*
X159722D01*
Y18415D01*
G75*
G02*
X155079Y13772I-4643J0D01*
G01*
G75*
G02*
X150435Y18415I0J4643D01*
G01*
Y18415D01*
X149722D01*
Y18415D01*
G75*
G02*
X145079Y13772I-4643J0D01*
G01*
G75*
G02*
X140435Y18415I0J4643D01*
G01*
Y18415D01*
X139722D01*
Y18415D01*
G75*
G02*
X135079Y13772I-4643J0D01*
G01*
G75*
G02*
X130435Y18415I0J4643D01*
G01*
Y18415D01*
X129722D01*
G75*
G02*
X125079Y13772I-4643J0D01*
G01*
G75*
G02*
X120435Y18415I0J4643D01*
G01*
Y18415D01*
X119722D01*
Y18415D01*
G75*
G02*
X115079Y13772I-4643J0D01*
G01*
G75*
G02*
X110435Y18415I0J4643D01*
G01*
Y18415D01*
X109722D01*
Y18415D01*
G75*
G02*
X105079Y13772I-4643J0D01*
G01*
G75*
G02*
X100435Y18415I0J4643D01*
G01*
Y18415D01*
X99722D01*
G75*
G02*
X95079Y13772I-4643J0D01*
G01*
G75*
G02*
X90435Y18415I0J4643D01*
G01*
Y18415D01*
X89722D01*
Y18415D01*
G75*
G02*
X85079Y13772I-4643J0D01*
G01*
G75*
G02*
X80435Y18415I0J4643D01*
G01*
Y18415D01*
X79722D01*
G75*
G02*
X75079Y13772I-4643J0D01*
G01*
G75*
G02*
X70435Y18415I0J4643D01*
G01*
Y18415D01*
X69722D01*
Y18415D01*
G75*
G02*
X65079Y13772I-4643J0D01*
G01*
G75*
G02*
X60435Y18415I0J4643D01*
G01*
Y18415D01*
X59722D01*
Y18415D01*
G75*
G02*
X55079Y13772I-4643J0D01*
G01*
G75*
G02*
X50435Y18415I0J4643D01*
G01*
Y18415D01*
X49722D01*
G75*
G02*
X45079Y13772I-4643J0D01*
G01*
G75*
G02*
X40435Y18415I0J4643D01*
G01*
Y18415D01*
X39722D01*
Y18415D01*
G75*
G02*
X35079Y13772I-4643J0D01*
G01*
G75*
G02*
X30435Y18415I0J4643D01*
G01*
Y18415D01*
X29722D01*
Y18415D01*
G75*
G02*
X25079Y13772I-4643J0D01*
G01*
G75*
G02*
X20435Y18415I0J4643D01*
G01*
Y18415D01*
X19722D01*
G75*
G02*
X15079Y13772I-4643J0D01*
G01*
G75*
G02*
X10435Y18415I0J4643D01*
G01*
X4084D01*
G37*
Y27648D02*
G36*
X4084Y27648D02*
Y18415D01*
X10435D01*
G75*
G02*
X13480Y22774I4643J0D01*
G01*
Y23107D01*
Y23107D01*
G75*
G02*
X13950Y24240I1599J0D01*
G01*
X17358Y27648D01*
X4084D01*
G37*
X16915Y22680D02*
G36*
X16915Y22680D02*
G75*
G02*
X19722Y18415I-1837J-4265D01*
G01*
X20435D01*
Y18415D01*
G75*
G02*
X25079Y23058I4643J0D01*
G01*
G75*
G02*
X29722Y18415I0J-4643D01*
G01*
Y18415D01*
X30435D01*
Y18415D01*
G75*
G02*
X35079Y23058I4643J0D01*
G01*
G75*
G02*
X39722Y18415I0J-4643D01*
G01*
Y18415D01*
X40435D01*
Y18415D01*
G75*
G02*
X45079Y23058I4643J0D01*
G01*
G75*
G02*
X49722Y18415I0J-4643D01*
G01*
X50435D01*
Y18415D01*
G75*
G02*
X55079Y23058I4643J0D01*
G01*
G75*
G02*
X59722Y18415I0J-4643D01*
G01*
Y18415D01*
X60435D01*
Y18415D01*
G75*
G02*
X65079Y23058I4643J0D01*
G01*
G75*
G02*
X69722Y18415I0J-4643D01*
G01*
Y18415D01*
X70435D01*
G75*
G02*
X76822Y22719I4643J0D01*
G01*
X81752Y27648D01*
X21883D01*
X16915Y22680D01*
G37*
X79722Y18415D02*
G36*
X79722Y18415D02*
X80435D01*
Y18415D01*
G75*
G02*
X85079Y23058I4643J0D01*
G01*
G75*
G02*
X89722Y18415I0J-4643D01*
G01*
Y18415D01*
X90435D01*
Y18415D01*
G75*
G02*
X95079Y23058I4643J0D01*
G01*
G75*
G02*
X99722Y18415I0J-4643D01*
G01*
X100435D01*
Y18415D01*
G75*
G02*
X105079Y23058I4643J0D01*
G01*
G75*
G02*
X109722Y18415I0J-4643D01*
G01*
Y18415D01*
X110435D01*
Y18415D01*
G75*
G02*
X115079Y23058I4643J0D01*
G01*
G75*
G02*
X119722Y18415I0J-4643D01*
G01*
Y18415D01*
X120435D01*
Y18415D01*
G75*
G02*
X125079Y23058I4643J0D01*
G01*
G75*
G02*
X129722Y18415I0J-4643D01*
G01*
X130435D01*
Y18415D01*
G75*
G02*
X135079Y23058I4643J0D01*
G01*
G75*
G02*
X139722Y18415I0J-4643D01*
G01*
Y18415D01*
X140435D01*
Y18415D01*
G75*
G02*
X145079Y23058I4643J0D01*
G01*
G75*
G02*
X149722Y18415I0J-4643D01*
G01*
Y18415D01*
X150435D01*
Y18415D01*
G75*
G02*
X155079Y23058I4643J0D01*
G01*
G75*
G02*
X159722Y18415I0J-4643D01*
G01*
Y18415D01*
X160435D01*
Y18415D01*
G75*
G02*
X165079Y23058I4643J0D01*
G01*
G75*
G02*
X169722Y18415I0J-4643D01*
G01*
Y18415D01*
X170435D01*
Y18415D01*
G75*
G02*
X175079Y23058I4643J0D01*
G01*
G75*
G02*
X179722Y18415I0J-4643D01*
G01*
X180435D01*
Y18415D01*
G75*
G02*
X185079Y23058I4643J0D01*
G01*
G75*
G02*
X189722Y18415I0J-4643D01*
G01*
Y18415D01*
X190435D01*
Y18415D01*
G75*
G02*
X195079Y23058I4643J0D01*
G01*
G75*
G02*
X199722Y18415I0J-4643D01*
G01*
Y18415D01*
X200435D01*
Y18415D01*
G75*
G02*
X205079Y23058I4643J0D01*
G01*
G75*
G02*
X209722Y18415I0J-4643D01*
G01*
X210435D01*
Y18415D01*
G75*
G02*
X215079Y23058I4643J0D01*
G01*
G75*
G02*
X219722Y18415I0J-4643D01*
G01*
Y18415D01*
X220435D01*
Y18415D01*
G75*
G02*
X225079Y23058I4643J0D01*
G01*
G75*
G02*
X229722Y18415I0J-4643D01*
G01*
X230435D01*
Y18415D01*
G75*
G02*
X235079Y23058I4643J0D01*
G01*
G75*
G02*
X239722Y18415I0J-4643D01*
G01*
Y18415D01*
X240435D01*
Y18415D01*
G75*
G02*
X245079Y23058I4643J0D01*
G01*
G75*
G02*
X249722Y18415I0J-4643D01*
G01*
Y18415D01*
X250435D01*
Y18415D01*
G75*
G02*
X255079Y23058I4643J0D01*
G01*
G75*
G02*
X259722Y18415I0J-4643D01*
G01*
X266076D01*
Y27648D01*
X86278D01*
X79194Y20565D01*
G75*
G02*
X79722Y18415I-4116J-2150D01*
G01*
G37*
X4084Y35143D02*
G36*
X4084Y35143D02*
Y27648D01*
X17358D01*
X20205Y30495D01*
Y32541D01*
X18738D01*
Y35143D01*
X18181D01*
Y32541D01*
X12045D01*
Y34011D01*
X11986D01*
G75*
G02*
X10854Y34481I0J1599D01*
G01*
X10191Y35143D01*
X4084D01*
G37*
X22436Y28200D02*
G36*
X22436Y28200D02*
X21883Y27648D01*
X81752D01*
X89248Y35143D01*
X57689D01*
Y28293D01*
X50553D01*
Y35143D01*
X48910D01*
Y34927D01*
X50496D01*
Y28793D01*
X44360D01*
Y34125D01*
X42305Y32070D01*
Y30966D01*
X35970D01*
Y35135D01*
X40845D01*
X40853Y35143D01*
X34824D01*
Y33525D01*
X28490D01*
Y34011D01*
X24874D01*
Y32541D01*
X23405D01*
Y29671D01*
G75*
G02*
X22436Y28200I-1602J1D01*
G01*
G37*
X93773Y35143D02*
G36*
X93773Y35143D02*
X86278Y27648D01*
X266076D01*
Y35143D01*
X93773D01*
G37*
X4084Y41250D02*
G36*
X4084Y41250D02*
Y35143D01*
X10191D01*
X4084Y41250D01*
G37*
X5738Y48022D02*
G36*
X5738Y48022D02*
Y44122D01*
X12045Y37815D01*
Y38679D01*
X18181D01*
Y35143D01*
X18738D01*
Y38679D01*
X24874D01*
Y37211D01*
X28490D01*
Y37694D01*
X34824D01*
Y35143D01*
X40853D01*
X41294Y35584D01*
X35470D01*
Y40754D01*
X42805D01*
Y38091D01*
X44242Y39528D01*
Y41494D01*
X50380D01*
Y35356D01*
X48910D01*
Y35143D01*
X50553D01*
Y35427D01*
X50935D01*
Y41494D01*
X52554D01*
Y43633D01*
G75*
G02*
X47022Y46243I-2150J2610D01*
G01*
G75*
G02*
X47528Y48022I3382J0D01*
G01*
X43785D01*
Y42862D01*
X37021D01*
Y44643D01*
X31021D01*
G75*
G02*
X29889Y45113I0J1599D01*
G01*
X29112Y45890D01*
X27870D01*
G75*
G02*
X20083Y47490I-3729J1600D01*
G01*
G75*
G02*
X20118Y48022I4058J0D01*
G01*
X18668D01*
G75*
G02*
X18699Y47490I-4527J-531D01*
G01*
G75*
G02*
X9583I-4558J0D01*
G01*
G75*
G02*
X9614Y48022I4558J1D01*
G01*
X5738D01*
G37*
X31683D02*
G36*
X31683Y48022D02*
Y47844D01*
X31684Y47843D01*
X37021D01*
Y48022D01*
X31683D01*
G37*
X53280D02*
G36*
X53280Y48022D02*
G75*
G02*
X53383Y47843I-2876J-1779D01*
G01*
X54154D01*
G75*
G02*
X55754Y46244I0J-1600D01*
G01*
Y46243D01*
Y41494D01*
X57072D01*
Y35427D01*
X57689D01*
Y35143D01*
X89248D01*
X93659Y39554D01*
G75*
G02*
X94791Y40024I1132J-1129D01*
G01*
X246710D01*
G75*
G02*
X252465Y38424I2655J-1600D01*
G01*
G75*
G02*
X246710Y36824I-3100J0D01*
G01*
X95454D01*
X93773Y35143D01*
X266076D01*
Y44044D01*
G75*
G02*
X259967Y48022I-1759J3978D01*
G01*
X258667D01*
G75*
G02*
X249967I-4350J0D01*
G01*
X248667D01*
G75*
G02*
X239967I-4350J0D01*
G01*
X238667D01*
G75*
G02*
X229967I-4350J0D01*
G01*
X228667D01*
G75*
G02*
X219967I-4350J0D01*
G01*
X218667D01*
G75*
G02*
X209967I-4350J0D01*
G01*
X208667D01*
G75*
G02*
X199967I-4350J0D01*
G01*
X198667D01*
G75*
G02*
X189967I-4350J0D01*
G01*
X188667D01*
G75*
G02*
X179967I-4350J0D01*
G01*
X178667D01*
G75*
G02*
X169967I-4350J0D01*
G01*
X168667D01*
G75*
G02*
X159967I-4350J0D01*
G01*
X158667D01*
G75*
G02*
X149967I-4350J0D01*
G01*
X148667D01*
G75*
G02*
X139967I-4350J0D01*
G01*
X138667D01*
G75*
G02*
X129967I-4350J0D01*
G01*
X128667D01*
G75*
G02*
X119967I-4350J0D01*
G01*
X118667D01*
G75*
G02*
X109967I-4350J0D01*
G01*
X108667D01*
G75*
G02*
X99967I-4350J0D01*
G01*
X73854D01*
G75*
G02*
X74285Y46243I-3450J-1779D01*
G01*
G75*
G02*
X66522I-3881J0D01*
G01*
G75*
G02*
X66954Y48022I3881J0D01*
G01*
X63280D01*
G75*
G02*
X63785Y46243I-2876J-1778D01*
G01*
G75*
G02*
X57022I-3381J0D01*
G01*
G75*
G02*
X57528Y48022I3381J0D01*
G01*
X53280D01*
G37*
X5738Y58022D02*
G36*
X5738Y58022D02*
Y48022D01*
X9614D01*
G75*
G02*
X18668I4527J-532D01*
G01*
X20118D01*
G75*
G02*
X27870Y49090I4023J-532D01*
G01*
X28483D01*
Y54458D01*
X27013D01*
Y58022D01*
X5738D01*
G37*
X31683Y54458D02*
G36*
X31683Y54458D02*
Y48022D01*
X37021D01*
Y49624D01*
X43785D01*
Y48022D01*
X47528D01*
G75*
G02*
X53280I2876J-1779D01*
G01*
X57528D01*
G75*
G02*
X63280I2876J-1779D01*
G01*
X66954D01*
G75*
G02*
X73854I3450J-1779D01*
G01*
X99967D01*
G75*
G02*
X106526Y51769I4350J0D01*
G01*
G75*
G02*
X106218Y53117I2792J1348D01*
G01*
G75*
G02*
X111974Y54716I3100J0D01*
G01*
X112344D01*
G75*
G02*
X110467Y58022I1973J3307D01*
G01*
X108167D01*
G75*
G02*
X100467I-3850J0D01*
G01*
X33151D01*
Y54458D01*
X31683D01*
G37*
X108667Y48022D02*
G36*
X108667Y48022D02*
Y48022D01*
X109967D01*
G75*
G02*
Y48023I4511J0D01*
G01*
G75*
G02*
X110610Y50298I4346J0D01*
G01*
G75*
G02*
X108022Y50300I-1292J2819D01*
G01*
G75*
G02*
X108667Y48022I-3704J-2278D01*
G01*
G37*
X118167Y58021D02*
G36*
X118167Y58021D02*
G75*
G02*
X116289Y54716I-3849J0D01*
G01*
X122344D01*
G75*
G02*
X120467Y58022I1973J3307D01*
G01*
X118167D01*
G75*
G02*
Y58021I-4511J0D01*
G01*
G37*
X118667Y48022D02*
G36*
X118667Y48022D02*
Y48022D01*
X119967D01*
Y48022D01*
G75*
G02*
X121725Y51516I4349J0D01*
G01*
X116908D01*
G75*
G02*
X118667Y48022I-2591J-3493D01*
G01*
G37*
X128167Y58021D02*
G36*
X128167Y58021D02*
G75*
G02*
X126289Y54716I-3849J0D01*
G01*
X132344D01*
G75*
G02*
X130467Y58022I1973J3307D01*
G01*
X128167D01*
G75*
G02*
Y58021I-4511J0D01*
G01*
G37*
X128667Y48022D02*
G36*
X128667Y48022D02*
Y48022D01*
X129967D01*
Y48022D01*
G75*
G02*
X131725Y51516I4349J0D01*
G01*
X126908D01*
G75*
G02*
X128667Y48022I-2591J-3493D01*
G01*
G37*
X138167Y58021D02*
G36*
X138167Y58021D02*
G75*
G02*
X136289Y54716I-3849J0D01*
G01*
X142344D01*
G75*
G02*
X140467Y58022I1973J3307D01*
G01*
X138167D01*
G75*
G02*
Y58021I-4511J0D01*
G01*
G37*
X138667Y48022D02*
G36*
X138667Y48022D02*
Y48022D01*
X139967D01*
Y48022D01*
G75*
G02*
X141725Y51516I4349J0D01*
G01*
X136908D01*
G75*
G02*
X138667Y48022I-2591J-3493D01*
G01*
G37*
X148167Y58021D02*
G36*
X148167Y58021D02*
G75*
G02*
X146289Y54716I-3849J0D01*
G01*
X152344D01*
G75*
G02*
X150467Y58022I1973J3307D01*
G01*
X148167D01*
G75*
G02*
Y58021I-4511J0D01*
G01*
G37*
X148667Y48022D02*
G36*
X148667Y48022D02*
Y48022D01*
X149967D01*
Y48022D01*
G75*
G02*
X151725Y51516I4349J0D01*
G01*
X146908D01*
G75*
G02*
X148667Y48022I-2591J-3493D01*
G01*
G37*
X158167Y58021D02*
G36*
X158167Y58021D02*
G75*
G02*
X156289Y54716I-3849J0D01*
G01*
X162344D01*
G75*
G02*
X160467Y58022I1973J3307D01*
G01*
X158167D01*
G75*
G02*
Y58021I-4511J0D01*
G01*
G37*
X158667Y48022D02*
G36*
X158667Y48022D02*
Y48022D01*
X159967D01*
Y48022D01*
G75*
G02*
X161725Y51516I4349J0D01*
G01*
X156908D01*
G75*
G02*
X158667Y48022I-2591J-3493D01*
G01*
G37*
X168167Y58021D02*
G36*
X168167Y58021D02*
G75*
G02*
X166289Y54716I-3849J0D01*
G01*
X168987D01*
X170778Y56506D01*
G75*
G02*
X170467Y58022I3547J1518D01*
G01*
X168167D01*
G75*
G02*
Y58021I-4511J0D01*
G01*
G37*
X168667Y48022D02*
G36*
X168667Y48022D02*
Y48022D01*
X169967D01*
G75*
G02*
X178667I4350J0D01*
G01*
X179967D01*
G75*
G02*
X188667I4350J0D01*
G01*
X189967D01*
G75*
G02*
X198667I4350J0D01*
G01*
X199967D01*
G75*
G02*
X208667I4350J0D01*
G01*
X209967D01*
G75*
G02*
X218667I4350J0D01*
G01*
X219967D01*
G75*
G02*
X228667I4350J0D01*
G01*
X229967D01*
G75*
G02*
X238667I4350J0D01*
G01*
X239967D01*
G75*
G02*
X248667I4350J0D01*
G01*
X249967D01*
G75*
G02*
X258667I4350J0D01*
G01*
X259967D01*
G75*
G02*
X266076Y52000I4350J0D01*
G01*
Y54598D01*
G75*
G02*
X260467Y58022I-1760J3424D01*
G01*
X258167D01*
G75*
G02*
X250467I-3850J0D01*
G01*
X248167D01*
G75*
G02*
X240467I-3850J0D01*
G01*
X238167D01*
G75*
G02*
X230467I-3850J0D01*
G01*
X228167D01*
G75*
G02*
X220467I-3850J0D01*
G01*
X218167D01*
G75*
G02*
X210467I-3850J0D01*
G01*
X208167D01*
G75*
G02*
X200467I-3850J0D01*
G01*
X198167D01*
G75*
G02*
X190467I-3850J0D01*
G01*
X188167D01*
G75*
G02*
X180467I-3850J0D01*
G01*
X178167D01*
G75*
G02*
X173150Y54353I-3850J0D01*
G01*
X170782Y51985D01*
G75*
G02*
X169650Y51516I-1133J1131D01*
G01*
X166908D01*
G75*
G02*
X168667Y48022I-2591J-3493D01*
G01*
G37*
X4084Y76561D02*
G36*
X4084Y76561D02*
Y67830D01*
X10646Y74391D01*
G75*
G02*
X12465Y76561I3496J-1083D01*
G01*
X4084D01*
G37*
X5738Y64958D02*
G36*
X5738Y64958D02*
Y58022D01*
X27013D01*
Y60596D01*
X33151D01*
Y58022D01*
X100467D01*
G75*
G02*
X102717Y61524I3851J0D01*
G01*
Y62804D01*
Y62804D01*
G75*
G02*
X103187Y63937I1599J0D01*
G01*
X107876Y68626D01*
G75*
G02*
X109009Y69096I1132J-1129D01*
G01*
X216547D01*
G75*
G02*
X216388Y69335I2445J1802D01*
G01*
X76973D01*
G75*
G02*
X75841Y69805I0J1599D01*
G01*
X71386Y74259D01*
G75*
G02*
X67154Y76561I-982J3236D01*
G01*
X63654D01*
G75*
G02*
X57154I-3250J934D01*
G01*
X53654D01*
G75*
G02*
X47154I-3250J934D01*
G01*
X43654D01*
G75*
G02*
X37509Y75748I-3250J934D01*
G01*
X33151D01*
Y74281D01*
X27013D01*
Y75748D01*
X18843D01*
X17599Y74504D01*
G75*
G02*
X17800Y73309I-3460J-1196D01*
G01*
G75*
G02*
X17599Y72113I-3662J0D01*
G01*
X17803Y71909D01*
X20867D01*
G75*
G02*
X22000Y71439I0J-1599D01*
G01*
X27013Y66425D01*
Y67088D01*
X26513D01*
Y74224D01*
X33651D01*
Y67088D01*
X33151D01*
Y61151D01*
X27013D01*
Y62618D01*
X26957D01*
G75*
G02*
X25825Y63088I0J1599D01*
G01*
X20205Y68709D01*
X17143D01*
G75*
G02*
X16561Y68817I-2J1598D01*
G01*
G75*
G02*
X18300Y65435I-2420J-3383D01*
G01*
G75*
G02*
X14141Y61276I-4159J0D01*
G01*
G75*
G02*
X9982Y65435I0J4159D01*
G01*
Y65435D01*
G75*
G02*
X16070Y69119I4159J0D01*
G01*
G75*
G02*
X16009Y69178I1430J1559D01*
G01*
X15336Y69850D01*
G75*
G02*
X11528Y70748I-1195J3458D01*
G01*
X5738Y64958D01*
G37*
X73654Y76561D02*
G36*
X73654Y76561D02*
G75*
G02*
X73644Y76527I-3254J943D01*
G01*
X77636Y72535D01*
X216388D01*
G75*
G02*
X222143Y70935I2655J-1600D01*
G01*
G75*
G02*
Y70934I-2654J0D01*
G01*
G75*
G02*
X221539Y69096I-3098J0D01*
G01*
X230734D01*
X236698Y75060D01*
G75*
G02*
X236411Y76560I3763J1500D01*
G01*
G75*
G02*
Y76561I4511J1D01*
G01*
X73654D01*
G37*
X105917Y62141D02*
G36*
X105917Y62141D02*
Y61524D01*
G75*
G02*
X108167Y58022I-1601J-3502D01*
G01*
X110467D01*
G75*
G02*
X118167I3850J0D01*
G01*
X120467D01*
G75*
G02*
X128167I3850J0D01*
G01*
X130467D01*
G75*
G02*
X138167I3850J0D01*
G01*
X140467D01*
G75*
G02*
X148167I3850J0D01*
G01*
X150467D01*
G75*
G02*
X158167I3850J0D01*
G01*
X160467D01*
G75*
G02*
X168167I3850J0D01*
G01*
X170467D01*
G75*
G02*
X178167I3850J0D01*
G01*
X180467D01*
G75*
G02*
X188167I3850J0D01*
G01*
X190467D01*
G75*
G02*
X198167I3850J0D01*
G01*
X200467D01*
G75*
G02*
X208167I3850J0D01*
G01*
X210467D01*
G75*
G02*
X218167I3850J0D01*
G01*
X220467D01*
G75*
G02*
X228167I3850J0D01*
G01*
X230467D01*
G75*
G02*
X238167I3850J0D01*
G01*
X240467D01*
G75*
G02*
X248167I3850J0D01*
G01*
X250467D01*
G75*
G02*
X258167I3850J0D01*
G01*
X260467D01*
G75*
G02*
X261717Y60862I3850J0D01*
G01*
X250054Y72525D01*
G75*
G02*
X246411Y76561I414J4037D01*
G01*
X244526D01*
G75*
G02*
X238959Y72795I-4058J0D01*
G01*
X232530Y66366D01*
G75*
G02*
X231397Y65896I-1132J1129D01*
G01*
X109671D01*
X105917Y62141D01*
G37*
X254526Y76561D02*
G36*
X254526Y76561D02*
G75*
G02*
X253375Y73730I-4058J0D01*
G01*
X265383Y61721D01*
G75*
G02*
X266076Y61446I-1062J-3691D01*
G01*
Y76561D01*
X264526D01*
G75*
G02*
X256411I-4058J0D01*
G01*
X254526D01*
G37*
X4084Y82313D02*
G36*
X4084Y82313D02*
Y76561D01*
X12465D01*
G75*
G02*
X15337Y76767I1676J-3253D01*
G01*
X17048Y78478D01*
G75*
G02*
X18181Y78948I1132J-1129D01*
G01*
X27013D01*
Y80417D01*
X33151D01*
Y78948D01*
X37351D01*
G75*
G02*
X43785Y77495I3053J-1453D01*
G01*
G75*
G02*
X43654Y76561I-3381J0D01*
G01*
X47154D01*
G75*
G02*
X47022Y77495I3250J934D01*
G01*
G75*
G02*
X51376Y80734I3381J0D01*
G01*
X52954Y82313D01*
X4084D01*
G37*
X53785Y77495D02*
G36*
X53785Y77495D02*
G75*
G02*
X53654Y76561I-3381J0D01*
G01*
X57154D01*
G75*
G02*
X57022Y77495I3250J934D01*
G01*
G75*
G02*
X58479Y80276I3382J0D01*
G01*
X55442D01*
X53641Y78474D01*
G75*
G02*
X53785Y77495I-3249J-981D01*
G01*
G37*
X63785D02*
G36*
X63785Y77495D02*
G75*
G02*
X63654Y76561I-3381J0D01*
G01*
X67154D01*
G75*
G02*
X67022Y77495I3250J934D01*
G01*
G75*
G02*
X68479Y80276I3381J0D01*
G01*
X62329D01*
G75*
G02*
X63785Y77495I-1925J-2781D01*
G01*
G37*
X73785Y77496D02*
G36*
X73785Y77496D02*
G75*
G02*
X73654Y76561I-3382J0D01*
G01*
X236411D01*
G75*
G02*
X244526I4058J0D01*
G01*
X246411D01*
G75*
G02*
X254526I4058J0D01*
G01*
X256411D01*
G75*
G02*
X264526I4058J0D01*
G01*
X266076D01*
Y82313D01*
X211002D01*
G75*
G02*
X212453Y79688I-1649J-2625D01*
G01*
Y79687D01*
G75*
G02*
X206253I-3100J0D01*
G01*
G75*
G02*
X206309Y80276I3119J-2D01*
G01*
X72329D01*
G75*
G02*
X73785Y77496I-1924J-2780D01*
G01*
G37*
D02*
D11*
X11683Y47490D02*
X9583D01*
X12035Y8415D02*
X9935D01*
X12082Y65435D02*
X9982D01*
X14141Y45032D02*
Y42932D01*
Y49948D02*
Y52048D01*
Y63376D02*
Y61276D01*
Y67494D02*
Y69594D01*
Y73309D02*
X11826D01*
X4138Y65620D01*
Y43459D01*
X11986Y35611D01*
X15112D01*
X15079Y5372D02*
Y3273D01*
Y11458D02*
Y13557D01*
Y18415D02*
Y23107D01*
X21643Y29672D01*
X21805D01*
Y35611D01*
X16200Y65435D02*
X18300D01*
X16599Y47490D02*
X18699D01*
X21805Y35611D02*
X31657D01*
X25079Y5372D02*
Y3272D01*
Y8415D02*
X35079D01*
X25079D02*
X15079D01*
X25079Y11458D02*
Y13558D01*
X28615Y70656D02*
X26513D01*
X30083Y47490D02*
Y57526D01*
Y47490D02*
Y47181D01*
X31021Y46243D01*
X40404D01*
X30083Y47490D02*
X24141D01*
X30083Y64219D02*
X26957D01*
X20867Y70309D01*
X17140D01*
X14141Y73309D01*
X30083Y72124D02*
Y74224D01*
Y77348D02*
X18181D01*
X14141Y73309D01*
X30083Y77348D02*
X40404D01*
Y77495D01*
X31552Y70656D02*
X33651D01*
X35079Y5372D02*
Y3272D01*
Y11458D02*
Y13558D01*
X37571Y38170D02*
X35470D01*
X39138Y37686D02*
Y35584D01*
Y38654D02*
Y40754D01*
X40705Y38170D02*
X42805D01*
X45079Y5372D02*
Y3272D01*
Y8415D02*
X55079D01*
X45079D02*
X35079D01*
X45079Y11458D02*
Y13558D01*
X47310Y38424D02*
Y31977D01*
X47427Y31860D01*
X47310Y38424D02*
X45401D01*
X43525Y36549D01*
Y35553D01*
X41024Y33052D01*
X39138D01*
X52652Y31860D02*
X50553D01*
X54003Y38424D02*
X54154D01*
Y46243D01*
X50404D01*
X54120Y30391D02*
Y28293D01*
X55079Y5372D02*
Y3272D01*
Y11458D02*
Y13558D01*
X55589Y31860D02*
X57689D01*
X65079Y5372D02*
Y3272D01*
Y8415D02*
X75079D01*
X65079D02*
X55079D01*
X65079Y11458D02*
Y13558D01*
X68622Y46243D02*
X66522D01*
X70404Y44462D02*
Y42362D01*
Y46243D02*
X83064D01*
X84843Y48022D01*
X104317D01*
X70404Y48025D02*
Y50125D01*
X72185Y46243D02*
X74285D01*
X75079Y5372D02*
Y3272D01*
Y11458D02*
Y13558D01*
X85079Y5372D02*
Y3272D01*
Y8415D02*
X95079D01*
X85079D02*
X75079D01*
X85079Y11458D02*
Y13558D01*
X95079Y5372D02*
Y3272D01*
Y11458D02*
Y13558D01*
X102067Y48022D02*
X99967D01*
X104317Y45772D02*
Y43672D01*
Y48022D02*
X114317D01*
X104317Y50272D02*
Y52372D01*
Y58022D02*
Y62804D01*
X109009Y67496D01*
X228896D01*
X231397D01*
X240462Y76561D01*
X240469D01*
X105079Y5372D02*
Y3272D01*
Y8415D02*
X115079D01*
X105079D02*
X95079D01*
X105079Y11458D02*
Y13558D01*
X106567Y48022D02*
X108667D01*
X109318Y53117D02*
X169650D01*
X174339Y57806D01*
Y58022D01*
X174317D01*
X112067Y48022D02*
X109967D01*
X114317Y45772D02*
Y43672D01*
X115079Y5372D02*
Y3272D01*
Y11458D02*
Y13558D01*
X116567Y48022D02*
X118667D01*
X122067D02*
X119967D01*
X124317Y45772D02*
Y43672D01*
Y48022D02*
X114317D01*
X125079Y5372D02*
Y3272D01*
Y8415D02*
X135079D01*
X125079D02*
X115079D01*
X125079Y11458D02*
Y13558D01*
X126567Y48022D02*
X128667D01*
X132067D02*
X129967D01*
X134317Y45772D02*
Y43672D01*
Y48022D02*
X124317D01*
X135079Y5372D02*
Y3272D01*
Y11458D02*
Y13558D01*
X136567Y48022D02*
X138667D01*
X142067D02*
X139967D01*
X144317Y45772D02*
Y43672D01*
Y48022D02*
X134317D01*
X145079Y5372D02*
Y3272D01*
Y8415D02*
X155079D01*
X145079D02*
X135079D01*
X145079Y11458D02*
Y13558D01*
X146567Y48022D02*
X148667D01*
X152067D02*
X149967D01*
X154317Y45772D02*
Y43672D01*
Y48022D02*
X144317D01*
X155079Y5372D02*
Y3272D01*
Y11458D02*
Y13558D01*
X156567Y48022D02*
X158667D01*
X162067D02*
X159967D01*
X164317Y45772D02*
Y43672D01*
Y48022D02*
X174317D01*
X164317D02*
X154317D01*
X165079Y5372D02*
Y3272D01*
Y8415D02*
X175079D01*
X165079D02*
X155079D01*
X165079Y11458D02*
Y13558D01*
X166567Y48022D02*
X168667D01*
X172067D02*
X169967D01*
X174317Y45772D02*
Y43672D01*
Y48022D02*
X184317D01*
X174317Y50272D02*
Y52372D01*
X175079Y5372D02*
Y3272D01*
Y11458D02*
Y13558D01*
X176567Y48022D02*
X178667D01*
X182067D02*
X179967D01*
X184317Y45772D02*
Y43672D01*
Y50272D02*
Y52372D01*
X185079Y5372D02*
Y3272D01*
Y8415D02*
X195079D01*
X185079D02*
X175079D01*
X185079Y11458D02*
Y13558D01*
X186567Y48022D02*
X188667D01*
X192067D02*
X189967D01*
X194317Y45772D02*
Y43672D01*
Y48022D02*
X184317D01*
X194317Y50272D02*
Y52372D01*
X195079Y5372D02*
Y3272D01*
Y11458D02*
Y13558D01*
X196567Y48022D02*
X198667D01*
X202067D02*
X199967D01*
X204317Y45772D02*
Y43672D01*
Y48022D02*
X194317D01*
X204317Y50272D02*
Y52372D01*
X205079Y5372D02*
Y3272D01*
Y8415D02*
X215079D01*
X205079D02*
X195079D01*
X205079Y11458D02*
Y13558D01*
X206567Y48022D02*
X208667D01*
X209353Y79687D02*
X207165Y81876D01*
X54779D01*
X50398Y77495D01*
X50404D01*
X212067Y48022D02*
X209967D01*
X214317Y45772D02*
Y43672D01*
Y48022D02*
X204317D01*
X214317Y50272D02*
Y52372D01*
X215079Y5372D02*
Y3272D01*
Y11458D02*
Y13558D01*
X216567Y48022D02*
X218667D01*
X219043Y70935D02*
X76973D01*
X70413Y77495D01*
X70404D01*
X222067Y48022D02*
X219967D01*
X224317Y45772D02*
Y43672D01*
Y48022D02*
X214317D01*
X224317Y50272D02*
Y52372D01*
X225079Y5372D02*
Y3272D01*
Y8415D02*
X235079D01*
X225079D02*
X215079D01*
X225079Y11458D02*
Y13558D01*
X226567Y48022D02*
X228667D01*
X232067D02*
X229967D01*
X234317Y45772D02*
Y43672D01*
Y48022D02*
X224317D01*
X234317Y50272D02*
Y52372D01*
X235079Y5372D02*
Y3272D01*
Y11458D02*
Y13558D01*
X236567Y48022D02*
X238667D01*
X242067D02*
X239967D01*
X244317Y45772D02*
Y43672D01*
Y48022D02*
X234317D01*
X244317Y50272D02*
Y52372D01*
X245079Y5372D02*
Y3272D01*
Y8415D02*
X255079D01*
X245079D02*
X235079D01*
X245079Y11458D02*
Y13558D01*
X246567Y48022D02*
X248667D01*
X249365Y38424D02*
X94791D01*
X75079Y18712D01*
Y18415D01*
X250469Y76561D02*
Y74373D01*
X264317Y60525D01*
Y58022D01*
X252067Y48022D02*
X249967D01*
X254317Y45772D02*
Y43672D01*
Y48022D02*
X264317D01*
X254317D02*
X244317D01*
X254317Y50272D02*
Y52372D01*
X255079Y5372D02*
Y3272D01*
Y11458D02*
Y13558D01*
X256567Y48022D02*
X258667D01*
X258122Y8415D02*
X260222D01*
X262067Y48022D02*
X259967D01*
X264317Y45772D02*
Y43672D01*
Y50272D02*
Y52372D01*
D02*
D13*
X109318Y53117D03*
X209353Y79687D03*
X219043Y70935D03*
X249365Y38424D03*
D02*
D23*
X15112Y35611D03*
X21805D03*
X47310Y38424D03*
X47427Y31860D03*
X54003Y38424D03*
X54120Y31860D03*
D02*
D24*
X30083Y57526D03*
Y64219D03*
Y70656D03*
Y77348D03*
D02*
D102*
X104317Y48022D03*
Y58022D03*
X114317Y48022D03*
Y58022D03*
X124317Y48022D03*
Y58022D03*
X134317Y48022D03*
Y58022D03*
X144317Y48022D03*
Y58022D03*
X154317Y48022D03*
Y58022D03*
X164317Y48022D03*
Y58022D03*
X174317Y48022D03*
Y58022D03*
X184317Y48022D03*
Y58022D03*
X194317Y48022D03*
Y58022D03*
X204317Y48022D03*
Y58022D03*
X214317Y48022D03*
Y58022D03*
X224317Y48022D03*
Y58022D03*
X234317Y48022D03*
Y58022D03*
X244317Y48022D03*
Y58022D03*
X254317Y48022D03*
Y58022D03*
X264317Y48022D03*
Y58022D03*
D02*
D103*
X15079Y8415D03*
D02*
D104*
Y18415D03*
X25079Y8415D03*
Y18415D03*
X35079Y8415D03*
Y18415D03*
X45079Y8415D03*
Y18415D03*
X55079Y8415D03*
Y18415D03*
X65079Y8415D03*
Y18415D03*
X75079Y8415D03*
Y18415D03*
X85079Y8415D03*
Y18415D03*
X95079Y8415D03*
Y18415D03*
X105079Y8415D03*
Y18415D03*
X115079Y8415D03*
Y18415D03*
X125079Y8415D03*
Y18415D03*
X135079Y8415D03*
Y18415D03*
X145079Y8415D03*
Y18415D03*
X155079Y8415D03*
Y18415D03*
X165079Y8415D03*
Y18415D03*
X175079Y8415D03*
Y18415D03*
X185079Y8415D03*
Y18415D03*
X195079Y8415D03*
Y18415D03*
X205079Y8415D03*
Y18415D03*
X215079Y8415D03*
Y18415D03*
X225079Y8415D03*
Y18415D03*
X235079Y8415D03*
Y18415D03*
X245079Y8415D03*
Y18415D03*
X255079Y8415D03*
Y18415D03*
D02*
D105*
X14141Y65435D03*
Y73309D03*
D02*
D106*
X40404Y46243D03*
D02*
D107*
Y77495D03*
X50404Y46243D03*
Y77495D03*
X60404Y46243D03*
Y77495D03*
X70404Y46243D03*
Y77495D03*
D02*
D108*
X14141Y47490D03*
X24141D03*
X240469Y76561D03*
X250469D03*
X260469D03*
D02*
D109*
X31657Y35611D03*
X39138Y33052D03*
Y38170D03*
X0Y0D02*
M02*
