G04 DesignSpark PCB Gerber Version 11.0 Build 5877*
%FSLAX35Y35*%
%MOIN*%
%ADD79R,0.04537X0.04537*%
%ADD114R,0.05163X0.05163*%
%ADD111R,0.07687X0.07687*%
%ADD10C,0.01200*%
%ADD115C,0.05163*%
%ADD113C,0.05718*%
%ADD110C,0.06100*%
%ADD112C,0.07687*%
%ADD117R,0.04734X0.02569*%
%ADD78R,0.04537X0.04537*%
X0Y0D02*
D02*
D10*
X1083Y600D02*
X269075D01*
Y85314D01*
X1083D01*
Y600D01*
D02*
D78*
X15112Y35611D03*
X21805D03*
X47310Y38424D03*
X47427Y31860D03*
X54003Y38424D03*
X54120Y31860D03*
D02*
D79*
X30083Y70656D03*
Y77348D03*
D02*
D110*
X104317Y48022D03*
Y58022D03*
X114317Y48022D03*
Y58022D03*
X124317Y48022D03*
Y58022D03*
X134317Y48022D03*
Y58022D03*
X144317Y48022D03*
Y58022D03*
X154317Y48022D03*
Y58022D03*
X164317Y48022D03*
Y58022D03*
X174317Y48022D03*
Y58022D03*
X184317Y48022D03*
Y58022D03*
X194317Y48022D03*
Y58022D03*
X204317Y48022D03*
Y58022D03*
X214317Y48022D03*
Y58022D03*
X224317Y48022D03*
Y58022D03*
X234317Y48022D03*
Y58022D03*
X244317Y48022D03*
Y58022D03*
X254317Y48022D03*
Y58022D03*
X264317Y48022D03*
Y58022D03*
D02*
D111*
X15079Y8415D03*
D02*
D112*
Y18415D03*
X25079Y8415D03*
Y18415D03*
X35079Y8415D03*
Y18415D03*
X45079Y8415D03*
Y18415D03*
X55079Y8415D03*
Y18415D03*
X65079Y8415D03*
Y18415D03*
X75079Y8415D03*
Y18415D03*
X85079Y8415D03*
Y18415D03*
X95079Y8415D03*
Y18415D03*
X105079Y8415D03*
Y18415D03*
X115079Y8415D03*
Y18415D03*
X125079Y8415D03*
Y18415D03*
X135079Y8415D03*
Y18415D03*
X145079Y8415D03*
Y18415D03*
X155079Y8415D03*
Y18415D03*
X165079Y8415D03*
Y18415D03*
X175079Y8415D03*
Y18415D03*
X185079Y8415D03*
Y18415D03*
X195079Y8415D03*
Y18415D03*
X205079Y8415D03*
Y18415D03*
X215079Y8415D03*
Y18415D03*
X225079Y8415D03*
Y18415D03*
X235079Y8415D03*
Y18415D03*
X245079Y8415D03*
Y18415D03*
X255079Y8415D03*
Y18415D03*
D02*
D113*
X14141Y65435D03*
Y73309D03*
D02*
D114*
X40404Y46243D03*
D02*
D115*
Y77495D03*
X50404Y46243D03*
Y77495D03*
X60404Y46243D03*
Y77495D03*
X70404Y46243D03*
Y77495D03*
D02*
D117*
X31657Y35611D03*
X39138Y33052D03*
Y38170D03*
X0Y0D02*
M02*
