G04 DesignSpark PCB Gerber Version 11.0 Build 5877*
%FSLAX35Y35*%
%MOIN*%
%ADD128R,0.05906X0.05906*%
%ADD70R,0.06496X0.06496*%
%ADD11C,0.01000*%
%ADD10C,0.01200*%
%ADD129C,0.05906*%
%ADD22C,0.06000*%
%ADD124C,0.06299*%
%ADD71C,0.06496*%
%ADD127C,0.09843*%
%ADD91C,0.10000*%
%ADD125C,0.18661*%
%ADD126C,0.21496*%
X0Y0D02*
D02*
D10*
X600Y600D02*
X353836D01*
Y164243D01*
X600D01*
Y600D01*
X3002Y138593D02*
Y25783D01*
G75*
G02*
X34328Y17168I14479J-8615D01*
G01*
G75*
G02*
X26600Y3002I-16848J0D01*
G01*
X328148D01*
G75*
G02*
X320420Y17168I9120J14166D01*
G01*
G75*
G02*
X351438Y26283I16848J0D01*
G01*
Y138093D01*
G75*
G02*
X320420Y147209I-14169J9115D01*
G01*
G75*
G02*
X328921Y161843I16848J0D01*
G01*
X25828D01*
G75*
G02*
X34328Y147209I-8348J-14635D01*
G01*
G75*
G02*
X3002Y138593I-16848J0D01*
G01*
X47698Y83751D02*
G75*
G02*
X71394I11848J0D01*
G01*
G75*
G02*
X47698I-11848J0D01*
G01*
X63584Y34048D02*
G75*
G02*
X75784I6100J0D01*
G01*
G75*
G02*
X63584I-6100J0D01*
G01*
Y129703D02*
G75*
G02*
X75784I6100J0D01*
G01*
G75*
G02*
X63584I-6100J0D01*
G01*
X99684Y40648D02*
G75*
G02*
Y27448I0J-6600D01*
G01*
G75*
G02*
X93084Y34048I0J6600D01*
G01*
G75*
G02*
X99684Y40648I6600J0D01*
G01*
Y136303D02*
G75*
G02*
Y123103I0J-6600D01*
G01*
G75*
G02*
X93084Y129703I0J6600D01*
G01*
G75*
G02*
X99684Y136303I6600J0D01*
G01*
X117913Y156277D02*
G75*
G02*
X127113I4600J0D01*
G01*
G75*
G02*
X117913I-4600J0D01*
G01*
X118413Y146277D02*
G75*
G02*
X126613I4100J0D01*
G01*
G75*
G02*
X118413I-4100J0D01*
G01*
X134529Y23087D02*
G75*
G02*
X146572I6021J0D01*
G01*
G75*
G02*
X134529I-6021J0D01*
G01*
Y143165D02*
G75*
G02*
X146572I6021J0D01*
G01*
G75*
G02*
X134529I-6021J0D01*
G01*
X210354Y121072D02*
G75*
G02*
Y111872I0J-4600D01*
G01*
G75*
G02*
X205754Y116472I0J4600D01*
G01*
G75*
G02*
X210354Y121072I4600J0D01*
G01*
X334589Y73934D02*
G75*
G02*
X339142Y66803I1430J-4106D01*
G01*
G75*
G02*
X336018Y65435I-3124J2881D01*
G01*
X319950D01*
Y60504D01*
X326212Y54241D01*
X334566D01*
G75*
G02*
X339295Y47285I1452J-4098D01*
G01*
G75*
G02*
X336019Y45742I-3276J2707D01*
G01*
X324452D01*
G75*
G02*
X321446Y46988I0J4250D01*
G01*
X312696Y55737D01*
G75*
G02*
X311450Y58743I3004J3006D01*
G01*
Y69602D01*
G75*
G02*
X311450Y69684I4257J82D01*
G01*
Y124203D01*
X287763D01*
X278660Y115100D01*
G75*
G02*
X278661Y115011I-6095J-98D01*
G01*
G75*
G02*
X276810Y110635I-6100J0D01*
G01*
Y51866D01*
G75*
G02*
X272561Y41390I-4250J-4376D01*
G01*
G75*
G02*
X272471Y41391I9J6096D01*
G01*
X261806Y30725D01*
Y18806D01*
G75*
G02*
X261806Y18724I-4257J-82D01*
G01*
G75*
G02*
X257311Y14481I-4250J0D01*
G01*
X233486D01*
G75*
G02*
X229681Y16839I0J4250D01*
G01*
X214220Y32299D01*
X211160D01*
G75*
G02*
X206103Y36472I-806J4173D01*
G01*
G75*
G02*
X206104Y36554I4258J0D01*
G01*
Y46391D01*
G75*
G02*
X206103Y46472I4257J82D01*
G01*
G75*
G02*
X214604I4250J0D01*
G01*
G75*
G02*
X214603Y46391I-4258J0D01*
G01*
Y40798D01*
X215980D01*
G75*
G02*
X218987Y39552I0J-4250D01*
G01*
X235559Y22980D01*
X253306D01*
Y32485D01*
G75*
G02*
X254552Y35491I4250J0D01*
G01*
X266461Y47400D01*
G75*
G02*
X266461Y47490I6095J98D01*
G01*
G75*
G02*
X268311Y51866I6100J0D01*
G01*
Y110635D01*
G75*
G02*
X272561Y121111I4250J4376D01*
G01*
G75*
G02*
X272650Y121110I-9J-6096D01*
G01*
X282996Y131456D01*
G75*
G02*
X286002Y132702I3006J-3004D01*
G01*
X324452D01*
G75*
G02*
X327458Y131456I0J-4250D01*
G01*
X332000Y126915D01*
X335936D01*
G75*
G02*
X340269Y122665I82J-4250D01*
G01*
G75*
G02*
X335936Y118416I-4250J0D01*
G01*
X330239D01*
G75*
G02*
X327233Y119662I0J4250D01*
G01*
X322692Y124203D01*
X319949D01*
Y73934D01*
X334589D01*
X331170Y79670D02*
G75*
G02*
X340866I4848J0D01*
G01*
G75*
G02*
X331170I-4848J0D01*
G01*
X331464Y117377D02*
X340570D01*
Y108271D01*
X331464D01*
Y117377D01*
X331670Y89513D02*
G75*
G02*
X340366I4348J0D01*
G01*
G75*
G02*
X331670I-4348J0D01*
G01*
X331170Y59985D02*
G75*
G02*
X340866I4848J0D01*
G01*
G75*
G02*
X331170I-4848J0D01*
G01*
X331169Y45149D02*
X340865D01*
Y35452D01*
X331169D01*
Y45149D01*
X302561Y54090D02*
G75*
G02*
Y40890I0J-6600D01*
G01*
G75*
G02*
X295961Y47490I0J6600D01*
G01*
G75*
G02*
X302561Y54090I6600J0D01*
G01*
Y121611D02*
G75*
G02*
X309161Y115011I0J-6600D01*
G01*
G75*
G02*
X302561Y108411I-6600J0D01*
G01*
G75*
G02*
X295961Y115011I0J6600D01*
G01*
G75*
G02*
X302561Y121611I6600J0D01*
G01*
X252956Y8724D02*
G75*
G02*
X262156I4600J0D01*
G01*
G75*
G02*
X252956I-4600J0D01*
G01*
X206254Y26472D02*
G75*
G02*
X214454I4100J0D01*
G01*
G75*
G02*
X206254I-4100J0D01*
G01*
X210354Y131072D02*
G75*
G02*
Y121872I0J-4600D01*
G01*
G75*
G02*
X205754Y126472I0J4600D01*
G01*
G75*
G02*
X210354Y131072I4600J0D01*
G01*
X206254Y136472D02*
G75*
G02*
X214454I4100J0D01*
G01*
G75*
G02*
X206254I-4100J0D01*
G01*
Y146472D02*
G75*
G02*
X214454I4100J0D01*
G01*
G75*
G02*
X206254I-4100J0D01*
G01*
X24993Y83751D02*
G75*
G02*
X46854I10931J0D01*
G01*
G75*
G02*
X24993I-10931J0D01*
G01*
X47931Y74891D02*
G75*
G02*
X58362Y64460I0J-10431D01*
G01*
G75*
G02*
X47931Y54029I-10431J0D01*
G01*
G75*
G02*
X37501Y64460I0J10431D01*
G01*
G75*
G02*
X47931Y74891I10431J0D01*
G01*
X32060Y8724D02*
G36*
X32060Y8724D02*
G75*
G02*
X27471Y3602I-14579J8443D01*
G01*
X327278D01*
G75*
G02*
X322689Y8724I9990J13566D01*
G01*
X262156D01*
G75*
G02*
X252956I-4600J0D01*
G01*
X32060D01*
G37*
X33254Y23087D02*
G36*
X33254Y23087D02*
G75*
G02*
X34328Y17168I-15774J-5919D01*
G01*
G75*
G02*
Y17167I-22557J0D01*
G01*
G75*
G02*
X32060Y8724I-16847J0D01*
G01*
X252956D01*
G75*
G02*
X262156I4600J0D01*
G01*
X322689D01*
G75*
G02*
X320420Y17167I14579J8443D01*
G01*
G75*
G02*
Y17168I22557J0D01*
G01*
G75*
G02*
X321494Y23087I16848J0D01*
G01*
X261806D01*
Y18806D01*
G75*
G02*
X261806Y18745I-2130J-58D01*
G01*
G75*
G02*
Y18724I-2133J-10D01*
G01*
G75*
G02*
X257311Y14481I-4251J0D01*
G01*
X233486D01*
G75*
G02*
X229681Y16839I0J4249D01*
G01*
X223433Y23087D01*
X212666D01*
G75*
G02*
X208041I-2312J3386D01*
G01*
X146572D01*
G75*
G02*
X134529I-6021J0D01*
G01*
X33254D01*
G37*
X235452D02*
G36*
X235452Y23087D02*
X235559Y22980D01*
X253306D01*
Y23087D01*
X235452D01*
G37*
X3602Y34048D02*
G36*
X3602Y34048D02*
Y26720D01*
G75*
G02*
X33254Y23087I13879J-9552D01*
G01*
X134529D01*
G75*
G02*
X146572I6021J0D01*
G01*
X208041D01*
G75*
G02*
X206254Y26472I2312J3386D01*
G01*
G75*
G02*
X214454I4100J0D01*
G01*
G75*
G02*
X212666Y23087I-4100J0D01*
G01*
X223433D01*
X214220Y32299D01*
X211160D01*
G75*
G02*
X206862Y34048I-807J4173D01*
G01*
X106284D01*
G75*
G02*
X99684Y27448I-6600J0D01*
G01*
G75*
G02*
X93084Y34048I0J6600D01*
G01*
X75784D01*
G75*
G02*
X63584I-6100J0D01*
G01*
X3602D01*
G37*
X224491D02*
G36*
X224491Y34048D02*
X235452Y23087D01*
X253306D01*
Y32485D01*
G75*
G02*
X253604Y34048I4252J-1D01*
G01*
X224491D01*
G37*
X261806Y30725D02*
G36*
X261806Y30725D02*
Y23087D01*
X321494D01*
G75*
G02*
X350838Y27154I15774J-5919D01*
G01*
Y34048D01*
X265129D01*
X261806Y30725D01*
G37*
X3602Y40300D02*
G36*
X3602Y40300D02*
Y34048D01*
X63584D01*
G75*
G02*
X75784I6100J0D01*
G01*
X93084D01*
G75*
G02*
X97570Y40300I6600J0D01*
G01*
X3602D01*
G37*
X101798D02*
G36*
X101798Y40300D02*
G75*
G02*
X106284Y34048I-2114J-6252D01*
G01*
X206862D01*
G75*
G02*
X206103Y36472I3491J2424D01*
G01*
Y36472D01*
G75*
G02*
Y36493I2133J10D01*
G01*
G75*
G02*
X206104Y36554I2130J4D01*
G01*
Y40300D01*
X101798D01*
G37*
X217976D02*
G36*
X217976Y40300D02*
G75*
G02*
X218987Y39552I-1997J-3753D01*
G01*
X224491Y34048D01*
X253604D01*
G75*
G02*
X254552Y35491I3954J-1564D01*
G01*
X259361Y40300D01*
X217976D01*
G37*
X271381D02*
G36*
X271381Y40300D02*
X265129Y34048D01*
X350838D01*
Y40300D01*
X340865D01*
Y35452D01*
X331169D01*
Y40300D01*
X271381D01*
G37*
X3602Y47490D02*
G36*
X3602Y47490D02*
Y40300D01*
X97570D01*
G75*
G02*
X99684Y40648I2114J-6252D01*
G01*
G75*
G02*
X101798Y40300I0J-6600D01*
G01*
X206104D01*
Y46391D01*
G75*
G02*
X206103Y46452I2130J58D01*
G01*
G75*
G02*
Y46472I2133J10D01*
G01*
G75*
G02*
X206227Y47490I4250J0D01*
G01*
X3602D01*
G37*
X214603Y46391D02*
G36*
X214603Y46391D02*
Y40798D01*
X215980D01*
G75*
G02*
X217976Y40300I-1J-4252D01*
G01*
X259361D01*
X266461Y47400D01*
G75*
G02*
X266461Y47490I640066J5684D01*
G01*
X214480D01*
G75*
G02*
X214604Y46472I-4127J-1018D01*
G01*
G75*
G02*
Y46452I-2133J-10D01*
G01*
G75*
G02*
X214603Y46391I-2130J-4D01*
G01*
G37*
X272471Y41391D02*
G36*
X272471Y41391D02*
X271381Y40300D01*
X331169D01*
Y45149D01*
X340865D01*
Y40300D01*
X350838D01*
Y47490D01*
X339463D01*
G75*
G02*
X339295Y47285I-3446J2652D01*
G01*
G75*
G02*
X336019Y45742I-3277J2707D01*
G01*
X324452D01*
G75*
G02*
X321446Y46988I1J4251D01*
G01*
X320944Y47490D01*
X309161D01*
G75*
G02*
X302561Y40890I-6600J0D01*
G01*
G75*
G02*
X295961Y47490I0J6600D01*
G01*
X278660D01*
G75*
G02*
X272561Y41390I-6100J0D01*
G01*
G75*
G02*
X272471Y41391I5594J640067D01*
G01*
G37*
X3602Y59985D02*
G36*
X3602Y59985D02*
Y47490D01*
X206227D01*
G75*
G02*
X214480I4127J-1017D01*
G01*
X266461D01*
Y47490D01*
G75*
G02*
X268311Y51866I6098J0D01*
G01*
Y59985D01*
X57354D01*
G75*
G02*
X47931Y54029I-9422J4475D01*
G01*
G75*
G02*
X38509Y59985I0J10431D01*
G01*
X3602D01*
G37*
X276810D02*
G36*
X276810Y59985D02*
Y51866D01*
G75*
G02*
X278660Y47490I-4250J-4376D01*
G01*
X295961D01*
G75*
G02*
X302561Y54090I6600J0D01*
G01*
G75*
G02*
X309161Y47490I0J-6600D01*
G01*
X320944D01*
X312696Y55737D01*
G75*
G02*
X311450Y58743I3005J3007D01*
G01*
Y59985D01*
X276810D01*
G37*
X320468D02*
G36*
X320468Y59985D02*
X326212Y54241D01*
X334566D01*
G75*
G02*
X340366Y50143I1452J-4098D01*
G01*
G75*
G02*
X339463Y47490I-4348J0D01*
G01*
X350838D01*
Y59985D01*
X340866D01*
G75*
G02*
X331170I-4848J0D01*
G01*
X320468D01*
G37*
X3602Y83751D02*
G36*
X3602Y83751D02*
Y59985D01*
X38509D01*
G75*
G02*
X37501Y64460I9422J4475D01*
G01*
G75*
G02*
X47931Y74891I10431J0D01*
G01*
G75*
G02*
X58362Y64460I0J-10431D01*
G01*
G75*
G02*
X57354Y59985I-10431J0D01*
G01*
X268311D01*
Y83751D01*
X71394D01*
G75*
G02*
X47698I-11848J0D01*
G01*
X46854D01*
G75*
G02*
X24993I-10931J0D01*
G01*
X3602D01*
G37*
X276810D02*
G36*
X276810Y83751D02*
Y59985D01*
X311450D01*
Y69602D01*
G75*
G02*
X311450Y69664I2130J58D01*
G01*
G75*
G02*
Y69684I2133J10D01*
G01*
Y83751D01*
X276810D01*
G37*
X319949D02*
G36*
X319949Y83751D02*
Y73934D01*
X334589D01*
G75*
G02*
X340366Y69828I1430J-4106D01*
G01*
G75*
G02*
X339142Y66803I-4348J0D01*
G01*
G75*
G02*
X336018Y65435I-3124J2880D01*
G01*
X319950D01*
Y60504D01*
X320468Y59985D01*
X331170D01*
G75*
G02*
X340866I4848J0D01*
G01*
X350838D01*
Y83751D01*
X338635D01*
G75*
G02*
X340866Y79670I-2617J-4081D01*
G01*
G75*
G02*
X331170I-4848J0D01*
G01*
G75*
G02*
X333401Y83751I4848J0D01*
G01*
X319949D01*
G37*
X3602Y89513D02*
G36*
X3602Y89513D02*
Y83751D01*
X24993D01*
G75*
G02*
X26635Y89513I10931J0D01*
G01*
X3602D01*
G37*
X45213D02*
G36*
X45213Y89513D02*
G75*
G02*
X46854Y83751I-9289J-5762D01*
G01*
X47698D01*
G75*
G02*
X49193Y89513I11848J0D01*
G01*
X45213D01*
G37*
X69898D02*
G36*
X69898Y89513D02*
G75*
G02*
X71394Y83751I-10353J-5762D01*
G01*
X268311D01*
Y89513D01*
X69898D01*
G37*
X276810D02*
G36*
X276810Y89513D02*
Y83751D01*
X311450D01*
Y89513D01*
X276810D01*
G37*
X319949D02*
G36*
X319949Y89513D02*
Y83751D01*
X333401D01*
G75*
G02*
X338635I2617J-4081D01*
G01*
X350838D01*
Y89513D01*
X340366D01*
G75*
G02*
X331670I-4348J0D01*
G01*
X319949D01*
G37*
X3602Y116472D02*
G36*
X3602Y116472D02*
Y89513D01*
X26635D01*
G75*
G02*
X45213I9289J-5761D01*
G01*
X49193D01*
G75*
G02*
X69898I10353J-5761D01*
G01*
X268311D01*
Y110635D01*
G75*
G02*
X266461Y115011I4250J4376D01*
G01*
G75*
G02*
X266639Y116472I6100J0D01*
G01*
X214954D01*
G75*
G02*
X210354Y111872I-4600J0D01*
G01*
G75*
G02*
X205754Y116472I0J4600D01*
G01*
Y116472D01*
X3602D01*
G37*
X276810Y110635D02*
G36*
X276810Y110635D02*
Y89513D01*
X311450D01*
Y116472D01*
X308997D01*
G75*
G02*
X309161Y115011I-6437J-1461D01*
G01*
G75*
G02*
X302561Y108411I-6600J0D01*
G01*
G75*
G02*
X295961Y115011I0J6600D01*
G01*
G75*
G02*
X296124Y116472I6600J0D01*
G01*
X280032D01*
X278660Y115100D01*
G75*
G02*
X278661Y115011I-640066J-5684D01*
G01*
Y115011D01*
G75*
G02*
X276810Y110635I-6098J0D01*
G01*
G37*
X319949Y116472D02*
G36*
X319949Y116472D02*
Y89513D01*
X331670D01*
G75*
G02*
X340366I4348J0D01*
G01*
X350838D01*
Y116472D01*
X340570D01*
Y108271D01*
X331464D01*
Y116472D01*
X319949D01*
G37*
X3602Y129703D02*
G36*
X3602Y129703D02*
Y116472D01*
X205754D01*
Y116473D01*
G75*
G02*
X210354Y121072I4600J0D01*
G01*
G75*
G02*
X214954Y116472I0J-4600D01*
G01*
X266639D01*
G75*
G02*
X272561Y121111I5922J-1461D01*
G01*
G75*
G02*
X272650Y121110I-5594J-640067D01*
G01*
X281243Y129703D01*
X213628D01*
G75*
G02*
X214954Y126472I-3274J-3231D01*
G01*
G75*
G02*
X210354Y121872I-4600J0D01*
G01*
G75*
G02*
X205754Y126472I0J4600D01*
G01*
Y126472D01*
Y126473D01*
G75*
G02*
X207079Y129703I4600J0D01*
G01*
X106284D01*
G75*
G02*
X99684Y123103I-6600J0D01*
G01*
G75*
G02*
X93084Y129703I0J6600D01*
G01*
X75784D01*
G75*
G02*
X63584I-6100J0D01*
G01*
X3602D01*
G37*
X287763Y124203D02*
G36*
X287763Y124203D02*
X280032Y116472D01*
X296124D01*
G75*
G02*
X302561Y121611I6436J-1461D01*
G01*
G75*
G02*
X308997Y116472I0J-6600D01*
G01*
X311450D01*
Y124203D01*
X287763D01*
G37*
X319949D02*
G36*
X319949Y124203D02*
Y116472D01*
X331464D01*
Y117377D01*
X340570D01*
Y116472D01*
X350838D01*
Y129703D01*
X329211D01*
X332000Y126915D01*
X335936D01*
G75*
G02*
X340269Y122665I82J-4250D01*
G01*
G75*
G02*
X335936Y118416I-4250J0D01*
G01*
X330239D01*
G75*
G02*
X327233Y119662I1J4251D01*
G01*
X322692Y124203D01*
X319949D01*
G37*
X3602Y136472D02*
G36*
X3602Y136472D02*
Y129703D01*
X63584D01*
G75*
G02*
X75784I6100J0D01*
G01*
X93084D01*
G75*
G02*
X99684Y136303I6600J0D01*
G01*
G75*
G02*
X106284Y129703I0J-6600D01*
G01*
X207079D01*
G75*
G02*
X210354Y131072I3274J-3231D01*
G01*
G75*
G02*
X213628Y129703I0J-4600D01*
G01*
X281243D01*
X282996Y131456D01*
G75*
G02*
X286002Y132702I3007J-3005D01*
G01*
X324452D01*
G75*
G02*
X327458Y131456I-1J-4251D01*
G01*
X329211Y129703D01*
X350838D01*
Y136472D01*
X350253D01*
G75*
G02*
X324284I-12984J10736D01*
G01*
X214454D01*
G75*
G02*
X206254I-4100J0D01*
G01*
X30465D01*
G75*
G02*
X4496I-12984J10736D01*
G01*
X3602D01*
G37*
Y137657D02*
G36*
X3602Y137657D02*
Y136472D01*
X4496D01*
G75*
G02*
X3602Y137657I12985J10738D01*
G01*
G37*
X34303Y146277D02*
G36*
X34303Y146277D02*
G75*
G02*
X30465Y136472I-16823J932D01*
G01*
X206254D01*
G75*
G02*
X214454I4100J0D01*
G01*
X324284D01*
G75*
G02*
X320446Y146277I12985J10737D01*
G01*
X214449D01*
G75*
G02*
X206258I-4095J195D01*
G01*
X145705D01*
G75*
G02*
X146572Y143165I-5155J-3112D01*
G01*
G75*
G02*
X134529I-6021J0D01*
G01*
G75*
G02*
X135396Y146277I6021J0D01*
G01*
X126613D01*
G75*
G02*
X118413I-4100J0D01*
G01*
X34303D01*
G37*
X350253Y136472D02*
G36*
X350253Y136472D02*
X350838D01*
Y137222D01*
G75*
G02*
X350253Y136472I-13574J9991D01*
G01*
G37*
X34328Y147209D02*
G36*
X34328Y147209D02*
G75*
G02*
X34303Y146277I-16850J-3D01*
G01*
X118413D01*
G75*
G02*
X126613I4100J0D01*
G01*
X135396D01*
G75*
G02*
X145705I5155J-3112D01*
G01*
X206258D01*
G75*
G02*
X206254Y146472I4097J197D01*
G01*
G75*
G02*
X214454I4100J0D01*
G01*
G75*
G02*
X214449Y146277I-4102J2D01*
G01*
X320446D01*
G75*
G02*
X320420Y147209I16824J928D01*
G01*
G75*
G02*
X323069Y156277I16848J0D01*
G01*
X127113D01*
G75*
G02*
X117913I-4600J0D01*
G01*
X31680D01*
G75*
G02*
X34328Y147209I-14201J-9069D01*
G01*
G37*
X26802Y161243D02*
G36*
X26802Y161243D02*
G75*
G02*
X31680Y156277I-9323J-14036D01*
G01*
X117913D01*
G75*
G02*
X127113I4600J0D01*
G01*
X323069D01*
G75*
G02*
X327947Y161243I14200J-9069D01*
G01*
X26802D01*
G37*
D02*
D11*
X27093Y83751D02*
X24993D01*
X35924Y74920D02*
Y72820D01*
Y92582D02*
Y94682D01*
X44754Y83751D02*
X46854D01*
X95184Y34048D02*
X93084D01*
X95184Y129703D02*
X93084D01*
X99684Y29548D02*
Y27448D01*
Y38548D02*
Y40648D01*
Y125203D02*
Y123103D01*
Y134203D02*
Y136303D01*
X104184Y34048D02*
X106284D01*
X104184Y129703D02*
X106284D01*
X120013Y156277D02*
X117913D01*
X122513Y153777D02*
Y151677D01*
Y158777D02*
Y160877D01*
X125013Y156277D02*
X127113D01*
X207854Y116472D02*
X205754D01*
X207854Y126472D02*
X205754D01*
X210354Y113972D02*
Y111872D01*
Y118972D02*
Y121072D01*
Y123972D02*
Y121872D01*
Y128972D02*
Y131072D01*
X212854Y116472D02*
X214954D01*
X212854Y126472D02*
X214954D01*
X255056Y8724D02*
X252956D01*
X257556Y6224D02*
Y4124D01*
Y11224D02*
Y13324D01*
X260056Y8724D02*
X262156D01*
X298061Y47490D02*
X295961D01*
X298061Y115011D02*
X295961D01*
X302561Y42990D02*
Y40890D01*
Y51990D02*
Y54090D01*
Y110511D02*
Y108411D01*
Y119511D02*
Y121611D01*
X307061Y47490D02*
X309161D01*
X307061Y115011D02*
X309161D01*
X333270Y40300D02*
X331169D01*
X333270Y59985D02*
X331170D01*
X333270Y79670D02*
X331170D01*
X333565Y112823D02*
X331464D01*
X336018Y37552D02*
Y35452D01*
Y43048D02*
Y45149D01*
Y57237D02*
Y55137D01*
Y62733D02*
Y64833D01*
Y76922D02*
Y74822D01*
Y82418D02*
Y84518D01*
Y110370D02*
Y108271D01*
Y115276D02*
Y117377D01*
X338471Y112823D02*
X340570D01*
X338766Y40300D02*
X340865D01*
X338766Y59985D02*
X340866D01*
X338766Y79670D02*
X340866D01*
D02*
D70*
X336018Y40300D03*
D02*
D71*
Y50143D03*
Y59985D03*
Y69828D03*
Y79670D03*
Y89513D03*
D02*
D22*
X122513Y146277D03*
Y156277D03*
X210354Y26472D03*
Y36472D03*
Y46472D03*
Y116472D03*
Y126472D03*
Y136472D03*
Y146472D03*
X257556Y8724D03*
Y18724D03*
D02*
D91*
X69684Y34048D03*
Y129703D03*
X99684Y34048D03*
Y129703D03*
X272561Y47490D03*
Y115011D03*
X302561Y47490D03*
Y115011D03*
D02*
D124*
X210354Y36472D02*
Y36549D01*
X215980D01*
X233486Y19043D01*
Y18731D01*
X257556D01*
Y18724D01*
X210354Y36472D02*
Y46472D01*
X257556Y18724D02*
Y32485D01*
X272561Y47490D01*
Y115011D01*
X286002Y128453D01*
X315699D01*
Y69684D02*
Y128453D01*
Y69684D02*
X336018D01*
Y69828D01*
X315699Y128453D02*
X324452D01*
X330239Y122665D01*
X336018D01*
Y50143D02*
Y49991D01*
X324452D01*
X315699Y58743D01*
Y69684D01*
D02*
D125*
X35924Y83751D03*
X47931Y64460D03*
D02*
D126*
X59546Y83751D03*
D02*
D127*
X140550Y23087D03*
Y143165D03*
D02*
D128*
X336018Y112823D03*
D02*
D129*
Y122665D03*
X0Y0D02*
M02*
